<svg id="Layer_1" data-name="Layer 1" xmlns="http://www.w3.org/2000/svg" width="399" height="710.13" viewBox="0 0 399 710.13"><defs><style>.cls-1{fill:#bc4d3d;}.cls-2{fill:#ff9895;}.cls-3{fill:#fff;}</style></defs><path class="cls-1" d="M59.66,667.13C22.36,645.81,3.66,635,1.22,628c-13.16-38,53.4-82.2,60.34-133.7,4.49-33.33,3.34-68,3.34-68h0A128.06,128.06,0,0,0,50.08,395c-7.41-11.5-13.66-19.84-14.37-20.77-11.12-14.51-29.42-61-17.32-105.27,1.8-6.59,7.26-24.08,33.84-54.88,65.58-76,110.86-60.54,131.9-110,9.52-22.39,28.34-91.79,35.91-96.6A50.48,50.48,0,0,1,234.52,1c12.55-3.32,14.45.45,132,45.29,16.05,6.13,22.95,12.3,28.37,21.94,2,3.61,9.12,17.59.32,49.1-5.64,20.25-14.85,37-40.94,71.49S315,240.68,304.38,249.6C262.18,284.93,234,276,214.57,308.42c-13.13,22-11.44,44.87-10.93,50.73,3,34.4,25.94,46,40.72,73.25,29.56,54.45.46,123.24-24.72,182.75-20.3,48-38.1,90.06-70.79,94.8C137.67,711.57,111.52,696.78,59.66,667.13Z"/><path class="cls-2" d="M147.05,710.57c-11.89,0-36.45-13.74-87.64-43C20.5,645.32,3.19,635.19.74,628.12-6.41,607.46,9.83,584.84,27,560.89c15.17-21.13,30.86-43,34.05-66.7,4.34-32.21,3.39-66.1,3.34-67.86a127.21,127.21,0,0,0-14.74-31.1c-7.8-12.12-14.28-20.65-14.34-20.73C23.42,359,6.1,312,17.91,268.78c4.17-15.27,15.59-33.8,33.94-55.07C85.27,175,113.29,160,135.8,148c21.83-11.65,37.6-20.06,47.87-44.21,3.61-8.48,8.52-23.65,13.73-39.71C206,37.55,214.92,10.08,219.77,7A51.32,51.32,0,0,1,234.39.5c9.33-2.47,13.16-1,60.06,17.36,17.14,6.7,40.6,15.88,72.24,27.94,15.2,5.8,22.69,11.61,28.62,22.17,3.54,6.3,8.29,21.11.38,49.48-5.83,20.87-15.79,38.28-41,71.65C328.52,223.68,315.4,241,304.7,250c-19.48,16.3-35.69,23.08-50,29.06-16.38,6.84-29.31,12.25-39.7,29.63C206.41,323,202.55,341,204.14,359.11c1.94,22.16,12.28,34.89,23.22,48.38,6,7.4,12.22,15.06,17.44,24.67,29.67,54.67.79,123-24.7,183.19-20.5,48.46-38.21,90.31-71.18,95.09A12.29,12.29,0,0,1,147.05,710.57ZM240.47.59a22,22,0,0,0-5.82.87,50.25,50.25,0,0,0-14.34,6.39c-4.55,2.88-13.8,31.41-22,56.57-5.21,16.08-10.14,31.27-13.76,39.79-10.41,24.47-26.31,33-48.32,44.7-22.44,12-50.36,26.86-83.66,65.45C34.35,235.51,23,253.91,18.87,269.05,7.15,312,24.32,358.5,36.11,373.89c.06.08,6.56,8.65,14.39,20.8a128,128,0,0,1,14.87,31.4l0,.14c0,1.42,1.09,35.19-3.35,68.09-3.22,24-19,45.92-34.22,67.15-17,23.74-33.12,46.15-26.14,66.32,2.43,7,22.25,18.34,58.22,38.91,47.7,27.27,75,42.87,87.17,42.87a11.43,11.43,0,0,0,1.7-.12c32.41-4.7,50-46.31,70.4-94.49,25.4-60,54.19-128.08,24.74-182.32-5.17-9.53-11.36-17.15-17.34-24.52-11-13.61-21.47-26.46-23.43-48.92-1.61-18.37,2.3-36.49,11-51,10.56-17.66,23.63-23.12,40.17-30,14.24-5.95,30.39-12.69,49.75-28.9,10.61-8.88,23.7-26.2,49.8-60.71,25.15-33.27,35.08-50.6,40.86-71.33,7.82-28,3.18-42.55-.28-48.72-5-8.86-11.17-15.26-28.11-21.72-31.64-12.07-55.1-21.25-72.24-27.95C257.93,4.66,247.53.59,240.47.59Z"/><path class="cls-2" d="M57.55,634.56c32-32.18,56.25-72.06,66.63-116.39a279,279,0,0,0,6.06-32.31,166.2,166.2,0,0,0-.65-41.51,151.21,151.21,0,0,0-10-36.93c-4-9.54-9.25-18.38-14.94-27-2.44-3.69-5-7.32-7.5-11-1.15-1.65-2.28-3.3-3.41-5-.59-.88-1.18-1.76-1.76-2.65l-.78-1.19c-1.42-2.15,1.48,2.41.13.2-2.29-3.72-4.48-7.48-6.4-11.4-1-2-2-4.13-2.81-6.24-.45-1.09-.88-2.19-1.28-3.3-.24-.63-.46-1.26-.68-1.89-.13-.38-.77-2.65-.3-.87s-.21-.75-.26-.93c-.16-.55-.31-1.09-.46-1.64q-.51-1.89-1-3.81a80.68,80.68,0,0,1-1.58-9c-.15-1.28-.25-2.56-.34-3.84.22,3,0-1.57,0-2.16a80.65,80.65,0,0,1,.51-9.06c.29-2.6.31-6.08,1.36-8.5-.14.32-.63,2.63,0,.34.15-.62.3-1.24.47-1.86q.67-2.58,1.48-5.1A124.8,124.8,0,0,1,87,274.89c.24-.51,1-2.16-.13.22.27-.59.63-1.18.94-1.75.73-1.3,1.47-2.6,2.24-3.88q2.43-4.1,5.13-8a163.89,163.89,0,0,1,11.09-14.36c1-1.14,2-2.28,3-3.4.43-.47,2-2.13.27-.3l1.38-1.45q3.3-3.42,6.76-6.67c4.84-4.54,9.9-8.88,15-13.11,16-13.22,33.53-24.31,50.13-36.75a284.21,284.21,0,0,0,55.59-54.61A266,266,0,0,0,274,67c1.63-4.14,3.16-8.33,4.6-12.54,2-5.94-.93-13.43-7.23-15.39-6.15-1.91-13.27.84-15.45,7.21a280.2,280.2,0,0,1-10.75,26.93q-1.63,3.52-3.37,7c-.35.71-.71,1.41-1.06,2.11s-1.33,2.64-.05.11c-.73,1.45-1.53,2.87-2.31,4.29q-4.47,8.09-9.52,15.83-5.42,8.31-11.51,16.14-3.2,4.11-6.57,8.07-1.53,1.8-3.1,3.57L206,132.14a11.71,11.71,0,0,1-1.16,1.26,303.16,303.16,0,0,1-27.8,25.95c-15.48,12.66-32.52,23.22-48.44,35.31C108.44,210,89.16,227.3,74.88,248.4c-14.61,21.57-24,46.66-22.37,72.93C53.8,342.52,63,361.64,74.65,379c2.44,3.64,5,7.21,7.45,10.82q1.74,2.52,3.45,5.07c.61.91,1.21,1.83,1.81,2.75s.48,1.9-.26-.41a10.51,10.51,0,0,0,1.19,1.91A143.55,143.55,0,0,1,100.91,426c-1-2.75.39,1.33.6,2,.41,1.42.79,2.85,1.16,4.28q1.15,4.56,2,9.2c.64,3.38,1.16,6.79,1.58,10.21.19,1.58.35,3.16.5,4.74.08,1,.16,1.93.22,2.9.06.76.13,2.59.06.87a165.38,165.38,0,0,1-2.69,36.22c-.41,2.27-.86,4.53-1.33,6.78-.11.5-.22,1-.32,1.51-.36,1.73.69-3.11.12-.59-.26,1.16-.51,2.32-.77,3.49-1.5,6.6-3.25,13.13-5.33,19.58q-3,9.33-6.84,18.38-1.83,4.32-3.84,8.56c-.58,1.23-1.17,2.45-1.77,3.67L83.14,560l-.69,1.33c.65-1.24.77-1.46.34-.66a251.53,251.53,0,0,1-34.9,49.36c-.29.32-.59.64-.88,1-1.58,1.73,1.7-1.81.61-.65l-1.91,2c-1.18,1.24-2.39,2.47-3.6,3.69-4.42,4.46-6.21,11.81-1.55,16.92,4,4.44,12.26,6.32,17,1.55Z"/><path class="cls-2" d="M137.5,667c28.61-38.45,48.37-81.91,62.41-127.54a188.68,188.68,0,0,0,7.46-33.1,130.25,130.25,0,0,0-.85-34.72,118.92,118.92,0,0,0-10-33c-4.23-8.9-9.71-17.17-15.38-25.21-2.54-3.6-5.12-7.15-7.64-10.76-1.2-1.73-2.38-3.46-3.53-5.22-.16-.24-1.4-2.37-.4-.59.89,1.58.07.1-.18-.29-.73-1.19-1.46-2.38-2.16-3.59a113.61,113.61,0,0,1-6.44-12.81q-1.34-3.15-2.45-6.39c0-.12-.92-2.88-.37-1.06s-.3-1-.33-1.14c-.43-1.5-.84-3-1.21-4.52-.66-2.69-1.22-5.39-1.63-8.13q-.32-2.15-.51-4.32c-.06-.64-.1-1.28-.15-1.92.17,2.07,0,.37,0-.73a84.72,84.72,0,0,1,1.48-17.11A12.51,12.51,0,0,1,156,333c-.9,2.26-.23,1.06,0,.34.36-1.4.71-2.8,1.11-4.19.85-2.95,1.84-5.86,2.94-8.73,1-2.59,2.1-5.14,3.28-7.66.62-1.32,1.22-2.72,2-4-.22.36-1.23,2.26-.11.22.48-.87,1-1.74,1.45-2.6a160.6,160.6,0,0,1,21.51-29c-1.71,1.85.72-.74,1.33-1.36q1.56-1.62,3.18-3.19,3.43-3.36,7-6.55,7.23-6.45,14.77-12.54c15.8-12.74,32.93-23.64,49-36,20.82-16,40.06-34.63,56-55.52a278.56,278.56,0,0,0,35.28-62c1.68-4.06,3.26-8.16,4.77-12.29,2.15-5.91-1-13.46-7.24-15.39s-13.13.88-15.44,7.21q-4.83,13.26-10.89,26c-1.17,2.45-2.39,4.87-3.63,7.29-.39.77-.45,1.83.2-.37a10.37,10.37,0,0,1-.89,1.67q-1.14,2.11-2.32,4.22-4.47,8-9.48,15.59a244.24,244.24,0,0,1-24.93,31.94c1.23-1.32-.16.16-.35.36l-2.11,2.19q-1.9,2-3.85,3.87-3.62,3.58-7.34,7.07-6.58,6.17-13.49,11.94c-15.4,12.85-32.31,23.64-48.32,35.68-19.91,15-39,31.63-53.73,51.86-14.46,19.93-25.36,44.19-25.53,69.15-.16,23.4,8.5,45,21.15,64.35,4.83,7.39,10.21,14.41,15.14,21.74.62.92,1.23,1.86,1.84,2.79.72,1.09-.16.75-.45-.71a6.83,6.83,0,0,0,.79,1.28c1.27,2.06,2.49,4.16,3.63,6.29a104.36,104.36,0,0,1,6,13.28c.08.21,1.48,3.51,1.29,3.67,0,0-.84-2.81-.14-.38.16.58.34,1.16.5,1.74.82,2.9,1.51,5.83,2.09,8.78s1,5.75,1.37,8.65q.3,2.4.51,4.8c.05.6.1,1.2.14,1.79s.07.89.09,1.33c-.07-1.49-.08-1.8,0-.91a122.55,122.55,0,0,1-.41,15.33c-.22,2.37-.53,4.73-.89,7.08-.2,1.26-.42,2.51-.65,3.76-.1.56-.21,1.12-.32,1.67-.08.38-.74,3.31-.28,1.37.43-1.76,0,.11-.13.55l-.51,2.13c-.29,1.15-.58,2.3-.89,3.44q-1.12,4.22-2.4,8.4c-1.75,5.75-3.67,11.45-5.63,17.14-4.43,12.84-9,25.62-14.48,38.06q-3.9,8.85-8.27,17.47L148,605.38l-.43.82-.66,1.24c-.31.58-.63,1.16-.94,1.75q-2.09,3.82-4.24,7.6-7.66,13.35-16.44,26-3.63,5.24-7.44,10.34c-3.75,5.05-2.52,13.3,2.87,16.76A12.35,12.35,0,0,0,137.5,667Z"/><path class="cls-3" d="M375.41,70c-.84-.43.07,0,.38.24s.72.46,1.07.71.77.6,1.15.9c.06.06.52.47.11.09s.27.28.36.37a20.57,20.57,0,0,1,1.67,1.94c.3.4.57.8.85,1.21-.51-.75.18.32.34.61a25.18,25.18,0,0,1,1.13,2.34c.19.46.37.93.54,1.4,0,.07.23.66.06.16s.12.41.15.52a26.56,26.56,0,0,1,.94,5.66c0-.72,0,.66,0,.85q0,.78,0,1.56c-.05,1.19-.16,2.38-.32,3.57-.14,1-.32,2.07-.52,3.09s-.08.34,0,.14l-.21.88c-.15.59-.3,1.17-.46,1.75a124.46,124.46,0,0,1-4.77,13.2,120.46,120.46,0,0,0-5.55,15.63c-.58,2.28.22,5,2.72,5.77,2.15.67,5.16-.26,5.79-2.7,2.57-10.07,7.71-19.25,10.43-29.27,2.52-9.28,3.11-19.48-1.6-28.21A25.56,25.56,0,0,0,378.49,61.5c-2.12-1.07-5.12.58-5.79,2.71-.81,2.56.44,4.62,2.71,5.77Z"/><path class="cls-3" d="M365.18,150.72a4.51,4.51,0,1,0-2.72-5.77,4.58,4.58,0,0,0,2.72,5.77Z"/></svg>