<svg id="Layer_1" data-name="Layer 1" xmlns="http://www.w3.org/2000/svg" xmlns:xlink="http://www.w3.org/1999/xlink" width="1920.02" height="1084.5" viewBox="0 0 1920.02 1084.5"><defs><style>.cls-1{filter:url(#AI_GaussianBlur_4);}.cls-2{fill:#d8fffd;}.cls-3{fill:none;stroke:#000;stroke-miterlimit:10;stroke-width:5px;}</style><filter id="AI_GaussianBlur_4" name="AI_GaussianBlur_4"><feGaussianBlur stdDeviation="4"/></filter></defs><g class="cls-1"><rect class="cls-2" x="1" y="-1" width="1917" height="1086"/><line class="cls-3" x1="143" x2="143" y2="1085"/><line class="cls-3" x1="0.5" y1="151.5" x2="717.5" y2="151.5"/><line class="cls-3" x1="289.5" x2="289.5" y2="1085"/><line class="cls-3" x1="433.5" x2="433.5" y2="1085"/><line class="cls-3" x1="575.5" x2="575.5" y2="1085"/><line class="cls-3" y1="293.5" x2="717" y2="293.5"/><line class="cls-3" x1="1" y1="435.5" x2="718" y2="435.5"/><line class="cls-3" x1="0.17" y1="577.74" x2="717.17" y2="577.74"/><line class="cls-3" x1="-0.33" y1="719.74" x2="716.67" y2="719.74"/><line class="cls-3" x1="0.67" y1="861.74" x2="717.67" y2="861.74"/><line class="cls-3" x1="-1.83" y1="1007.74" x2="715.17" y2="1007.74"/><line class="cls-3" x1="716.64" y1="0.09" x2="716.64" y2="1085.09"/><line class="cls-3" x1="574.14" y1="151.59" x2="1291.14" y2="151.59"/><line class="cls-3" x1="863.14" y1="0.09" x2="863.14" y2="1085.09"/><line class="cls-3" x1="1007.14" y1="0.09" x2="1007.14" y2="1085.09"/><line class="cls-3" x1="1149.14" y1="0.09" x2="1149.14" y2="1085.09"/><line class="cls-3" x1="573.64" y1="293.59" x2="1290.64" y2="293.59"/><line class="cls-3" x1="574.64" y1="435.59" x2="1291.64" y2="435.59"/><line class="cls-3" x1="573.82" y1="577.84" x2="1290.82" y2="577.84"/><line class="cls-3" x1="573.32" y1="719.84" x2="1290.32" y2="719.84"/><line class="cls-3" x1="574.32" y1="861.84" x2="1291.32" y2="861.84"/><line class="cls-3" x1="571.82" y1="1007.84" x2="1288.82" y2="1007.84"/><line class="cls-3" x1="1301.64" y1="0.09" x2="1301.64" y2="1085.09"/><line class="cls-3" x1="1159.14" y1="151.59" x2="1876.14" y2="151.59"/><line class="cls-3" x1="1448.14" y1="0.09" x2="1448.14" y2="1085.09"/><line class="cls-3" x1="1592.14" y1="0.09" x2="1592.14" y2="1085.09"/><line class="cls-3" x1="1734.14" y1="0.09" x2="1734.14" y2="1085.09"/><line class="cls-3" x1="1158.64" y1="293.59" x2="1875.64" y2="293.59"/><line class="cls-3" x1="1159.64" y1="435.59" x2="1876.64" y2="435.59"/><line class="cls-3" x1="1158.82" y1="577.84" x2="1875.82" y2="577.84"/><line class="cls-3" x1="1158.32" y1="719.84" x2="1875.32" y2="719.84"/><line class="cls-3" x1="1159.32" y1="861.84" x2="1876.32" y2="861.84"/><line class="cls-3" x1="1156.82" y1="1007.84" x2="1873.82" y2="1007.84"/><line class="cls-3" x1="1297.76" y1="152.05" x2="1919.57" y2="152.05"/><line class="cls-3" x1="1873.07" y1="0.55" x2="1873.07" y2="1085.55"/><line class="cls-3" x1="1297.33" y1="294.05" x2="1919.13" y2="294.05"/><line class="cls-3" x1="1298.19" y1="436.05" x2="1920" y2="436.05"/><line class="cls-3" x1="1297.48" y1="578.3" x2="1919.28" y2="578.3"/><line class="cls-3" x1="1297.04" y1="720.3" x2="1918.85" y2="720.3"/><line class="cls-3" x1="1297.91" y1="862.3" x2="1919.72" y2="862.3"/><line class="cls-3" x1="1295.74" y1="1008.3" x2="1917.55" y2="1008.3"/><path d="M1448.92,435.08q-17.79-15-36.74-28.59l.54,2.05a65,65,0,0,0,4.79-10.46c.63-1.79,1.2-3.6,1.65-5.44a6.47,6.47,0,0,0-.41-5.17,27.49,27.49,0,0,0-3.77-4.23l-4.27-4.49-8.88-9.33-.66,2.51a13,13,0,0,0,10.29-11.3c.23-1.91-2.77-1.89-3,0a10,10,0,0,1-8.09,8.41,1.52,1.52,0,0,0-.66,2.51c5.22,5.47,10.54,10.87,15.65,16.44a3.74,3.74,0,0,1,1.16,2,6.38,6.38,0,0,1-.36,2.33q-.69,2.64-1.62,5.21a60.16,60.16,0,0,1-4.41,9.54,1.54,1.54,0,0,0,.54,2.05q18.61,13.34,36.13,28.12c1.47,1.24,3.6-.87,2.12-2.12Z"/><path d="M1417.25,394.47l-20.08.24c-1.54,0-2.9.05-4.16-1a38.82,38.82,0,0,1-3.23-3.31l-7.15-7.46c-1.33-1.4-3.45.72-2.12,2.12l7.49,7.82a29.32,29.32,0,0,0,3.51,3.45,7.2,7.2,0,0,0,4.31,1.36c3.54.1,7.11-.07,10.66-.11l10.77-.13a1.5,1.5,0,0,0,0-3Z"/><path d="M1388.75,392.17q-1.49,2.77-2.71,5.65c-.41,1-.81,2-1.18,2.95-.18.47-.35,1-.52,1.44a5.26,5.26,0,0,1-.46,1.19l.54-.54c.12-.1.41,0,.08-.05a5.42,5.42,0,0,0-.58-.06l-1.31-.13-2.49-.24-5-.49a1.5,1.5,0,0,0-1.5,1.5,1.53,1.53,0,0,0,1.5,1.5l6.13.6c1.07.11,2.14.27,3.21.32a2.18,2.18,0,0,0,2.23-1.39c.73-1.76,1.26-3.59,2-5.34s1.66-3.63,2.6-5.39-1.68-3.22-2.59-1.52Z"/><path d="M577,156l3.71,5.06,1.85,2.53a13.79,13.79,0,0,0,1.64,2.14c1.43,1.28,3.53.32,5.16,0a41.82,41.82,0,0,1,6-.54,80.25,80.25,0,0,1,12.19.78c4,.51,7.94,1.12,11.9.12,1.87-.48,1.08-3.37-.8-2.9-3.5.89-7.11.3-10.63-.16a87.88,87.88,0,0,0-11.23-.86,50.16,50.16,0,0,0-5.48.28c-.92.1-1.84.23-2.75.38l-1.18.22a5.54,5.54,0,0,1-1.2.3c-.42-.1-1.16-1.49-1.46-1.91L583,159.14l-3.42-4.67c-1.13-1.54-3.74-.05-2.59,1.51Z"/><path d="M586.41,164.53c.71,3.66,1.29,7.34,1.71,11.05q.15,1.32.27,2.64c.08.9.21,1.11-.5,1.66-1.55,1.21-3.15,2.37-4.73,3.56a1.52,1.52,0,0,0-.54,2.05L594.28,203c1.06,1.6,3.66.1,2.59-1.51L585.21,184l-.54,2.05c1.81-1.36,3.67-2.67,5.43-4.09s1.37-3,1.17-4.92q-.67-6.69-2-13.29c-.37-1.89-3.26-1.09-2.89.8Z"/><path d="M590.07,181.3a81.3,81.3,0,0,0,15.63,7.83,1.53,1.53,0,0,0,1.69-.69,28.17,28.17,0,0,1,6.91-6.91h-1.51l10.54,7.91c1.55,1.16,3-1.44,1.52-2.59l-10.55-7.91a1.46,1.46,0,0,0-1.51,0,32.22,32.22,0,0,0-8,8l1.69-.68a78.32,78.32,0,0,1-14.9-7.53c-1.63-1.05-3.14,1.54-1.52,2.59Z"/><path d="M438.8,579.12a221.27,221.27,0,0,0,19.88-18.85,1.53,1.53,0,0,0-.67-2.51,12.65,12.65,0,0,1-7.2-8.52l-1.05,1.85a15,15,0,0,0,6-2.87l6.12-4.27,12.66-8.82c1.57-1.1.07-3.7-1.52-2.59l-12.24,8.54-6.13,4.27c-1.76,1.23-3.5,2.49-5.67,2.85a1.52,1.52,0,0,0-1,1.84,15.8,15.8,0,0,0,9.31,10.61l-.66-2.5A222.62,222.62,0,0,1,436.68,577c-1.48,1.24.65,3.36,2.12,2.12Z"/><path d="M457.8,560.58a23.71,23.71,0,0,0,15.65-10l-2.36.3a60.26,60.26,0,0,1,10.82,17.27,1.51,1.51,0,0,0,2.2.9A44.84,44.84,0,0,1,504.73,562c1.91-.16,1.93-3.16,0-3a48,48,0,0,0-22.14,7.48l2.21.9a64.23,64.23,0,0,0-11.59-18.6,1.52,1.52,0,0,0-2.35.3A20.78,20.78,0,0,1,457,557.68c-1.9.31-1.1,3.2.79,2.9Z"/><path d="M463.1,539.66a160.88,160.88,0,0,1-11.73-12.76,1.5,1.5,0,0,0-2.12,0,1.53,1.53,0,0,0,0,2.12A160.88,160.88,0,0,0,461,541.78c1.38,1.35,3.5-.77,2.12-2.12Z"/><path d="M1870.88-1q-27.51,9.33-55.37,17.55-7.89,2.31-15.78,4.55a1.5,1.5,0,0,0,.79,2.89q28-7.89,55.57-16.91,7.82-2.55,15.58-5.19c1.82-.62,1-3.52-.79-2.89Z"/><path d="M1868.62.21,1817.36,35.8c-1.58,1.09-.08,3.7,1.51,2.59L1870.13,2.8c1.58-1.1.08-3.7-1.51-2.59Z"/><path d="M1869.44,1.8q-16.61,24.33-35.07,47.3c-1.2,1.5.91,3.63,2.12,2.13Q1855.18,28,1872,3.31c1.09-1.6-1.51-3.1-2.59-1.51Z"/><path d="M1869.78,2.31a283.93,283.93,0,0,1-14,54.59c-.66,1.82,2.24,2.6,2.9.8a284.64,284.64,0,0,0,14-54.59c.29-1.89-2.6-2.7-2.89-.8Z"/><path d="M1798.54,2a18.27,18.27,0,0,1,7.2,16.59,1.51,1.51,0,0,0,1.5,1.5A13.42,13.42,0,0,1,1820,33.57a1.5,1.5,0,0,0,1.9,1.44,12.26,12.26,0,0,1,9.83.63,12,12,0,0,1,6.42,7.59,3.53,3.53,0,0,0,1.8,2.16,6.39,6.39,0,0,0,3,.2,13.44,13.44,0,0,1,5.54,1,13.89,13.89,0,0,1,7.76,7.83c.66,1.79,3.56,1,2.89-.8a17.07,17.07,0,0,0-14.94-11c-.79,0-1.57,0-2.36.07-.53,0-.65.07-.9-.41a10.49,10.49,0,0,1-.37-1.12,14.41,14.41,0,0,0-2.3-4,16.07,16.07,0,0,0-7.22-5,14.77,14.77,0,0,0-10,0l1.9,1.45c.26-8.61-7.18-16.32-15.75-16.48l1.5,1.5a21.23,21.23,0,0,0-8.68-19.18c-1.57-1.13-3.06,1.47-1.52,2.59Z"/><path d="M1820.84,2.17c6,1.05,7.56,7.7,8.68,12.71a1.55,1.55,0,0,0,1.85,1c1.71-.28,3.28.87,4.28,2.16a8.34,8.34,0,0,1,1.23,2.2,11.35,11.35,0,0,0,.85,2.28c1.1,1.69,3.11,1.23,4.78,1.74a7.38,7.38,0,0,1,4,2.92c1,1.41,1.08,3.33,2.7,4.2s3.49.07,5.18.39a8.32,8.32,0,0,1,6.57,6.57c.36,1.89,3.25,1.09,2.89-.8a11.22,11.22,0,0,0-7-8.17,13.6,13.6,0,0,0-5.52-.58c-1.13,0-1.13-1-1.53-1.85a10,10,0,0,0-1.58-2.44,10.24,10.24,0,0,0-4.85-3.13,8.75,8.75,0,0,0-1.42-.3,7.65,7.65,0,0,1-1.36-.13c-.47-.18-.38-.3-.54-.81a11.37,11.37,0,0,0-.5-1.38c-1.53-3.6-4.86-6.42-8.92-5.77l1.84,1.05c-1.35-6-3.71-13.56-10.77-14.8-1.89-.34-2.7,2.55-.8,2.89Z"/><path d="M1863.2,39.83c.74-.27,1.49-.52,2.26-.73.38-.11.77-.21,1.16-.29l.59-.11c.18,0,.19,0,0,0l.29,0a8.77,8.77,0,0,1,1.15,0l.56,0c.18,0,.18,0,0,0l.28,0a3.62,3.62,0,0,1,1.79.8,1.5,1.5,0,0,0,2.05-.54,1.54,1.54,0,0,0-.54-2.05c-3.08-2.24-7.18-1.14-10.44,0a1.5,1.5,0,1,0,.8,2.89Z"/><path d="M1859.33,53.91a7.05,7.05,0,0,1,2.58-.68,6.83,6.83,0,0,1,2.9.39,5.69,5.69,0,0,1,1.18.51c.24.13.48.27.71.42l.32.22c.38.28-.1-.09.11.09a6.13,6.13,0,0,1,1.88,2.33,1.5,1.5,0,0,0,2.59-1.52,10.47,10.47,0,0,0-13.78-4.35,1.5,1.5,0,1,0,1.51,2.59Z"/><path d="M1841,1.28a5.3,5.3,0,0,1,1.15,3.79c0,1.47-.44,3.07.74,4.23a9.8,9.8,0,0,0,1.92,1.2q1.1.66,2.13,1.38c1.47,1,2.87,2.11,4.29,3.18a34.91,34.91,0,0,1,3.73,3.13c1.08,1.09,1.81,2.36,3.4,2.73A7.38,7.38,0,0,1,1862,22.3a5.9,5.9,0,0,1,2,3.57c.18,1.06,1.4,1.24,2.2.9,1.51-.66,3.57-1.54,4.85,0s3.36-.65,2.12-2.12c-2.25-2.67-5.77-1.62-8.49-.44l2.21.9a8.67,8.67,0,0,0-5.19-6.43,9,9,0,0,0-2.09-.56c-.89-.16-1.16-.57-1.74-1.23a25.79,25.79,0,0,0-3.85-3.45c-1.45-1.12-2.9-2.23-4.38-3.31-.75-.54-1.51-1.08-2.28-1.58-.39-.25-.78-.49-1.18-.72s-1-.39-1.12-.64a12.23,12.23,0,0,1,.14-1.9,12.77,12.77,0,0,0-.14-2,7.17,7.17,0,0,0-1.89-4c-1.32-1.41-3.44.72-2.12,2.12Z"/><path d="M1854.09.35c-.48,4.19,1.57,7.87,4.81,10.38,3.59,2.76,7.42,5.27,11.22,7.74,1.63,1.05,3.13-1.54,1.52-2.59-3.47-2.26-6.89-4.58-10.23-7a11,11,0,0,1-3.54-3.75,8.3,8.3,0,0,1-.78-4.78,1.5,1.5,0,0,0-1.5-1.5,1.54,1.54,0,0,0-1.5,1.5Z"/><ellipse cx="1821.5" cy="52" rx="5.5" ry="4" transform="translate(424.01 1221.44) rotate(-41.56)"/><ellipse cx="1818.05" cy="55.69" rx="2.68" ry="2.91" transform="translate(1653.36 1867.12) rotate(-86.56)"/><path d="M1820.85,55.78a5.39,5.39,0,0,1,.56.5l.23.25.14.16c.12.14-.19-.25-.08-.1s.28.41.41.64.12.22.17.33a.77.77,0,0,1,.07.16c.12.23-.09-.26,0-.09s.16.45.22.68a2.22,2.22,0,0,1,.09.37l0,.16c0,.27,0,0,0-.1a1.17,1.17,0,0,1,0,.37c0,.12,0,.23,0,.34s0,.25,0,.38-.08.61,0,.1a1.67,1.67,0,0,0,.16,1.16,1.5,1.5,0,0,0,2.05.54,1.49,1.49,0,0,0,.69-.9,7.52,7.52,0,0,0-.37-3.9,7.43,7.43,0,0,0-2.24-3.17,1.61,1.61,0,0,0-1.06-.44,1.5,1.5,0,0,0-1.06,2.56Z"/><path d="M1824.5,54.14l.07,0-.39.06h.28l-.4-.05a2.08,2.08,0,0,1,.41.11l-.36-.15a6.41,6.41,0,0,1,1.3.84l-.31-.23a7.1,7.1,0,0,1,1.29,1.22l-.24-.3a3.62,3.62,0,0,1,.55.93l-.15-.36a3.21,3.21,0,0,1,.21.75l0-.39a3,3,0,0,1,0,.42,1.5,1.5,0,0,0,1.5,1.5,1.52,1.52,0,0,0,1.5-1.5,5.34,5.34,0,0,0-1.86-3.85,15.26,15.26,0,0,0-1.62-1.26,4.24,4.24,0,0,0-1.06-.54,2.9,2.9,0,0,0-1.49-.07,1.5,1.5,0,0,0-1,1.85,1.5,1.5,0,0,0,.69.89,1.7,1.7,0,0,0,1.15.16Z"/><path d="M1825.71,51.58a6.46,6.46,0,0,1,.88,0c.14,0,.28,0,.42,0s.27.1,0,0l.2,0a8.26,8.26,0,0,1,.86.2l.4.13.19.07c.11,0,.28.16,0,0,.22.13.46.23.69.37s-.16-.15,0,0l.14.13a1.66,1.66,0,0,0,.13.14c.13.12-.16-.24-.06-.08s.27.45.39.69-.06-.07,0-.09a1,1,0,0,0,.09.22c0,.14.1.27.14.4a1.54,1.54,0,0,0,1.85,1,1.51,1.51,0,0,0,1-1.84,8,8,0,0,0-.89-1.95,4.69,4.69,0,0,0-1.86-1.56,9.66,9.66,0,0,0-4.49-.89,1.5,1.5,0,0,0,0,3Z"/><path d="M1824.3,47.72c.24-2.95-1.52-7.09-5.09-6.42a1.52,1.52,0,0,0-1,1.85,1.54,1.54,0,0,0,1.85,1l.15,0-.39,0a2.37,2.37,0,0,1,.46,0l-.4,0a2.63,2.63,0,0,1,.53.15l-.36-.15.28.14.1.07c.09.06,0,0-.15-.12.06.07.15.13.21.19a1.9,1.9,0,0,0,.19.21c-.15-.19-.17-.23-.08-.11l0,.07a2.68,2.68,0,0,1,.18.28c.09.17.17.34.25.51l-.15-.35a6.5,6.5,0,0,1,.45,1.62l0-.4a6.84,6.84,0,0,1,0,1.43,1.52,1.52,0,0,0,.44,1.06,1.56,1.56,0,0,0,1.06.44,1.54,1.54,0,0,0,1.5-1.5Z"/><path d="M1820.26,47.59a12.32,12.32,0,0,0-3.09-1.77,4.1,4.1,0,0,0-2.17-.07c-.59.09-1.17.21-1.75.32a1.5,1.5,0,0,0-1,1.85,1.53,1.53,0,0,0,1.84,1l1.54-.28.22,0c.17,0,.14,0-.08,0,.07,0,.25,0,.32,0s.15,0-.07,0l.15,0a1,1,0,0,1,.35.11c-.19-.08-.21-.09-.06,0l.09.05.38.2c.21.11.43.24.64.37a14,14,0,0,1,1.23.83,1.49,1.49,0,0,0,1.15.15,1.5,1.5,0,0,0,1-1.85,1.74,1.74,0,0,0-.69-.89Z"/><path d="M1816.82,50.34c.44-.07,0,0-.14,0l-.44,0-.87,0c-.52,0-1-.05-1.55,0a5.39,5.39,0,0,0-3.37,1.25,1.5,1.5,0,0,0,0,2.12,1.54,1.54,0,0,0,2.12,0c.12-.1.09-.08-.1.07l.15-.1a1.82,1.82,0,0,1,.27-.15c.33-.16-.27.08,0,0l.34-.11.26,0,.18,0-.13,0,.63,0c.51,0,1,0,1.52,0a10.27,10.27,0,0,0,1.92-.12,1.52,1.52,0,0,0,.9-.69,1.62,1.62,0,0,0,.15-1.16,1.55,1.55,0,0,0-.69-.9,1.78,1.78,0,0,0-1.16-.15Z"/></g></svg>