<svg id="Layer_1" data-name="Layer 1" xmlns="http://www.w3.org/2000/svg" width="306" height="174" viewBox="0 0 306 174"><defs><style>.cls-1{fill:#333;}.cls-2{fill:#fff;}</style></defs><ellipse class="cls-1" cx="149.28" cy="74.08" rx="103" ry="74"/><ellipse class="cls-1" cx="124.23" cy="143.1" rx="25.43" ry="18.27" transform="translate(-45.76 226.84) rotate(-75.26)"/><ellipse class="cls-1" cx="154.46" cy="144.03" rx="18.27" ry="25.43"/><ellipse class="cls-1" cx="187.46" cy="140.03" rx="18.27" ry="25.43" transform="translate(-9.93 14.38) rotate(-4.28)"/><path class="cls-1" d="M4.28,144.08c-3.19-.7-4.45-8.89-4-15,.39-5.39,2.59-15.68,20-31,8.88-7.81,24.81-19.66,49.36-27.67a6.2,6.2,0,0,1,4.53-.76,6,6,0,0,1,3.75,2.66h0A28,28,0,0,1,76,80.58c-7.9,19.73-33.46,14.94-52.74,35.5C10.72,129.47,8.82,145.09,4.28,144.08Z"/><path class="cls-1" d="M26.1,162.74c-3.23-.49-5-8.57-5-14.69,0-5.41,1.53-15.83,17.86-32.28,8.34-8.4,23.44-21.3,47.39-30.95a6.19,6.19,0,0,1,4.47-1.06,6,6,0,0,1,3.91,2.4h0a27.75,27.75,0,0,1-1.33,8.38c-6.55,20.21-32.38,17.17-50.23,39C31.54,147.73,30.7,163.44,26.1,162.74Z"/><path class="cls-1" d="M53.13,173.89c-3.23-.48-5-8.57-5-14.69,0-5.41,1.53-15.82,17.86-32.28,8.33-8.4,23.43-21.29,47.38-30.94a6.14,6.14,0,0,1,4.47-1.06,6,6,0,0,1,3.91,2.39h0a27.75,27.75,0,0,1-1.33,8.38c-6.54,20.22-32.37,17.17-50.22,39C58.57,158.88,57.73,174.59,53.13,173.89Z"/><path class="cls-1" d="M301.72,140.14c3.19-.71,4.45-8.9,4-15-.39-5.39-2.59-15.69-20-31-8.88-7.82-24.81-19.67-49.36-27.67a6.14,6.14,0,0,0-4.53-.76,6,6,0,0,0-3.75,2.65h0a28,28,0,0,0,1.9,8.27c7.9,19.73,33.46,15,52.74,35.51C295.28,125.53,297.18,141.14,301.72,140.14Z"/><path class="cls-1" d="M279.9,158.79c3.23-.49,5-8.57,5-14.69,0-5.41-1.53-15.82-17.86-32.28-8.34-8.4-23.44-21.29-47.39-30.94a6.14,6.14,0,0,0-4.47-1.06,6,6,0,0,0-3.91,2.39h0a27.75,27.75,0,0,0,1.33,8.38c6.55,20.22,32.38,17.17,50.23,39C274.46,143.78,275.3,159.49,279.9,158.79Z"/><path class="cls-1" d="M252.87,170c3.23-.49,5-8.58,5-14.7,0-5.4-1.53-15.82-17.86-32.28-8.33-8.4-23.43-21.29-47.38-30.94A6.19,6.19,0,0,0,188.16,91a6,6,0,0,0-3.91,2.39h0a27.67,27.67,0,0,0,1.33,8.38c6.54,20.22,32.37,17.17,50.22,39C247.43,154.94,248.27,170.65,252.87,170Z"/><ellipse cx="199.28" cy="88.08" rx="23" ry="19" transform="translate(91.63 277.51) rotate(-84.24)"/><ellipse cx="110.1" cy="88.52" rx="19" ry="23" transform="translate(-8.33 11.5) rotate(-5.76)"/><ellipse class="cls-2" cx="115.28" cy="77.84" rx="6.03" ry="7.3" transform="translate(-7.23 11.97) rotate(-5.76)"/><ellipse class="cls-2" cx="109.02" cy="88.55" rx="3.26" ry="3.94" transform="translate(-8.34 11.39) rotate(-5.76)"/><ellipse class="cls-2" cx="206.77" cy="78.01" rx="6.03" ry="7.3" transform="translate(-6.79 21.16) rotate(-5.76)"/><ellipse class="cls-2" cx="200.51" cy="88.72" rx="3.26" ry="3.94" transform="translate(-7.89 20.58) rotate(-5.76)"/><path d="M101.84,54.82A211,211,0,0,1,135.68,72c1.64,1,3.15-1.57,1.51-2.59a215.44,215.44,0,0,0-34.55-17.5c-1.8-.72-2.58,2.18-.8,2.89Z"/><path d="M178.15,72.68A137.21,137.21,0,0,1,207.57,52.6c1.72-.87.21-3.46-1.51-2.59a140.37,140.37,0,0,0-30,20.54c-1.44,1.29.69,3.41,2.12,2.13Z"/><path class="cls-2" d="M140.61,134.29,134.77,123l11.29-.2Z"/><path class="cls-2" d="M178.16,133.54l-4.78-11.83,11.27.84Z"/><path d="M122.68,120.85c3.77.47,7.27,2.13,10.92,3.09a25.73,25.73,0,0,0,9.73.66A26.48,26.48,0,0,0,159.8,116l-1.82.23a43,43,0,0,0,37.71,5.81c1.83-.59,1.05-3.49-.8-2.89a40.13,40.13,0,0,1-35.4-5.51,1.49,1.49,0,0,0-1.81.24,23.51,23.51,0,0,1-15.47,7.81,23.89,23.89,0,0,1-9.12-1c-3.47-1-6.79-2.37-10.41-2.82-1.91-.24-1.89,2.76,0,3Z"/></svg>