<svg id="Layer_1" data-name="Layer 1" xmlns="http://www.w3.org/2000/svg" width="1920" height="1080" viewBox="0 0 1920 1080"><defs><style>.cls-1{fill:#ffd12a;}.cls-2{fill:#b92900;}.cls-3{fill:#a6493f;}.cls-4{fill:#bc9c20;}.cls-5{fill:#fff;}</style></defs><ellipse class="cls-1" cx="1164.94" cy="936.97" rx="734.2" ry="147.59"/><ellipse class="cls-2" cx="1175.63" cy="920.54" rx="658.45" ry="111.64"/><path class="cls-3" d="M1175.63,1040.74c-176.35,0-342.2-11.66-467-32.82-61.07-10.36-109.13-22.46-142.86-36-38.43-15.41-57.11-32.22-57.11-51.4s18.68-36,57.11-51.39c33.73-13.52,81.79-25.62,142.86-36,124.83-21.16,290.68-32.82,467-32.82s342.2,11.66,467,32.82c61.07,10.36,109.14,22.46,142.86,36,38.43,15.41,57.12,32.22,57.12,51.39s-18.69,36-57.12,51.4c-33.72,13.52-81.79,25.62-142.86,36C1517.83,1029.08,1352,1040.74,1175.63,1040.74Zm0-223.29c-175.42,0-340.26,11.57-464.17,32.58C651.59,860.18,604.7,872,572.1,885c-29.47,11.82-46.38,24.76-46.38,35.52s16.91,23.71,46.38,35.53c32.6,13.06,79.49,24.84,139.36,35,123.91,21,288.75,32.58,464.17,32.58s340.26-11.57,464.16-32.58c59.88-10.15,106.76-21.93,139.36-35,29.48-11.82,46.38-24.77,46.38-35.53s-16.9-23.7-46.38-35.52c-32.6-13.07-79.48-24.84-139.36-35C1515.89,829,1351,817.45,1175.63,817.45Z"/><path class="cls-1" d="M1912,915.55c-6.82,71.35-91,114.28-98.78,106.64-8.19-8,70.09-70,52.24-120.93-8.78-25-37-37.61-96.88-54.27-133.44-37.12-247.45-45.44-294.09-48.61-89.2-6.06-133.81-8.83-190.31-11.38-138.9-6.27-285.15-7-433.07,8.39-5.7.6-11.27,1.18-19,2.08-100.56,11.7-189.95,22.17-271.65,63.8-71.59,36.49-106.65,81.33-121.57,69.51-9.54-7.56-3.57-32.5,3.8-48.56,17.71-38.59,58.47-61.47,159.25-85.47C745.48,762.55,814,756.53,814,756.53c172.7-15.18,307.73-15.31,342.88-15.24,192.47.41,332.43,13.05,366.66,16.26A1564.12,1564.12,0,0,1,1742.9,785.1c77.68,15.44,133.23,28.37,157.66,73.31C1913.87,882.88,1912.8,906.75,1912,915.55Z"/><path class="cls-4" d="M1816.31,1031.13a12.07,12.07,0,0,1-8.78-3.17c-6.54-6.41-.77-15.39,1.13-18.34,2.8-4.37,7.09-9.77,12.06-16,17.77-22.4,47.51-59.89,37.08-89.66-7-19.9-29.19-31.85-91.42-49.16-135.37-37.66-249.51-45.42-292.48-48.34-86.15-5.85-131.61-8.72-190.12-11.37-167.45-7.56-304.68-4.9-431.87,8.36-6.15.64-11.45,1.2-18.94,2.07-101.07,11.76-188.36,21.92-268.91,63-32.09,16.36-57.26,34.83-75.64,48.32-18.78,13.78-32.8,24.06-44.09,24.07a16.44,16.44,0,0,1-10.53-3.74c-14.62-11.59-5.95-42.07,1.48-58.26,19.3-42.05,62.4-65.59,164.73-90C742.55,755,810.46,748.74,813.28,748.49c154.54-13.59,281.6-15.39,343.61-15.27,172.18.36,303.94,10.35,367.24,16.28a1579.16,1579.16,0,0,1,220.34,27.68c38.63,7.68,72.83,14.94,100.25,26,30.63,12.39,50.62,28.7,62.94,51.35,13.5,24.82,13.52,49.34,12.34,61.75h0c-5.89,61.66-64.08,102.16-91.34,112.12C1825,1029.76,1820.53,1031.13,1816.31,1031.13ZM1110.4,774.74c54.62,0,112.32,1.4,174.11,4.2,58.67,2.65,104.2,5.52,190.49,11.39,43.41,2.94,158.75,10.78,295.71,48.88,61.2,17,92.12,30.26,102.33,59.38,13.38,38.17-19.83,80-39.67,105-2,2.58-4.27,5.39-6.3,8,8.79-3.87,21.6-11.26,35-23,17.35-15.2,38.7-40.36,41.91-73.91h0c1-10.58,1-31.46-10.46-52.51-22.18-40.79-72.28-53.38-152.15-69.26a1565.82,1565.82,0,0,0-218.23-27.4l-.31,0c-63-5.91-194.25-15.86-365.93-16.22-61.72-.14-188.24,1.67-342.15,15.2-.68.06-69.77,6.41-211,40-50.41,12-85,23.6-108.8,36.5-22.62,12.25-36.49,26-45,44.48-8.84,19.27-9.54,36.15-6.12,38.86.49.39,2.84.38,8.21-2.44,6.82-3.57,15.65-10,26.83-18.25,18.82-13.82,44.6-32.73,77.86-49.68,83.14-42.37,171.76-52.69,274.37-64.62,7.58-.89,12.93-1.45,19.13-2.1C931.24,778.91,1016.25,774.74,1110.4,774.74Z"/><path class="cls-1" d="M1891.07,895.55c-8.78-3.62-19.25,32-57.94,60-20.68,15-41.19,22-63.64,27.61-145.4,36.63-368.83,43.24-368.83,43.24-152.07,4.5-118.13,8.53-240.14,11-222.81,4.55-332.43-8.57-332.43-8.57-159.74-17.81-239.61-26.71-298.09-80-32.65-29.73-65.67-75.49-84.53-66.65-13.16,6.16-15.12,37.19-7.42,60.73,6.51,19.89,26.5,54.56,152.74,93.52,50.24,15.51,124.06,33.78,217.5,41,121.37,11.39,224.85,14.34,304.89,14.28,101.25-.07,181.57-5,228.28-7.9,72.53-4.55,54.62-3.45,178.13-15,29.4-2.76,126.59-8.79,246-31.36,42.91-8.11,91.76-18.84,117-59C1902.82,946,1903,900.45,1891.07,895.55Z"/><path class="cls-4" d="M1110.91,1099.77c-100,0-202.07-4.81-303.3-14.31a1006,1006,0,0,1-219.2-41.27c-56.12-17.32-97.73-35.87-123.7-55.15-23.76-17.63-31-33.32-34.33-43.58-7.74-23.67-8-61.35,11.66-70.55,18.8-8.8,40.86,14.27,66.4,41,8.84,9.25,18,18.81,27,27C592,994.4,671.19,1003.23,829,1020.82c1.15.14,111.85,13,331.37,8.52,60.36-1.23,82.36-2.84,107.83-4.7,26-1.9,55.48-4.05,132.23-6.32,2.22-.07,224.24-7,367.1-43,22.57-5.68,41.56-12.34,60.87-26.32,20.73-15,33.19-32.66,41.43-44.34,3.57-5.06,6.39-9.06,9.16-11.95,6.16-6.44,11.65-6.07,15.16-4.63h0c4.81,2,8.35,6.44,10.53,13.24,5.81,18.14,1.6,54.4-15.31,81.36-12.23,19.49-30.4,34.11-55.56,44.69-21.34,9-44.68,13.8-66.75,18-103.39,19.55-189.56,26.69-231,30.12-6.57.54-11.75,1-15.75,1.35-25.43,2.38-44.87,4.23-60.33,5.7-59.19,5.62-60.32,5.73-118,9.34-43.75,2.74-125.2,7.85-228.78,7.92ZM450.62,889.2a4,4,0,0,0-1.73.33c-6.63,3.1-10.77,27.66-3.17,50.91,2.9,8.86,8.77,20.91,28.61,35.64,24.5,18.18,64.48,35.9,118.84,52.68a989.65,989.65,0,0,0,215.74,40.61H809c101.53,9.53,203.86,14.34,304.13,14.25,103.08-.08,184.2-5.16,227.78-7.89,57.47-3.6,57.47-3.6,117.53-9.31,15.47-1.47,34.91-3.32,60.35-5.7,4.09-.38,9.31-.82,15.92-1.36,41.14-3.41,126.74-10.5,229.3-29.89,46-8.69,89.1-19.47,111.63-55.38,8-12.71,13.42-29.29,14.94-45.48,1.08-11.59-.21-19.13-1.53-23-1.82,2.27-4.1,5.5-6.08,8.31-8.86,12.55-22.25,31.52-45.15,48.11-22.66,16.41-45.3,23.59-66.4,28.9-144.58,36.42-368.32,43.41-370.56,43.48-76.4,2.26-105.69,4.4-131.54,6.29-25.69,1.87-47.89,3.49-108.67,4.73q-48.89,1-90.67,1c-160.73,0-241.95-9.46-242.89-9.57-161.2-18-242.15-27-302.57-82-9.42-8.58-18.76-18.35-27.79-27.8-11.25-11.76-21.88-22.87-31.17-30.14C457.47,890.53,453,889.2,450.62,889.2Zm1437,13.6Z"/><path class="cls-4" d="M612.18,798.07c11.05,1.19,20.15,10.56,22.55,21.19a23.74,23.74,0,0,1,.24,9.35c-.32,1.79,2.42,2.56,2.75.75,2.21-12.31-4.64-25.15-15.5-31a27,27,0,0,0-10-3.12c-1.82-.19-1.8,2.67,0,2.86Z"/><path class="cls-4" d="M890.5,754.46a51.24,51.24,0,0,1,12.8,37.48c-.13,1.84,2.72,1.83,2.85,0a54.13,54.13,0,0,0-13.63-39.5c-1.23-1.37-3.24.66-2,2Z"/><path class="cls-4" d="M1167.41,739.43c-4.94,1.85-8.31,6.42-10.7,10.94a63.42,63.42,0,0,0-6.32,20.45,83.11,83.11,0,0,0-.88,13.83c0,1.84,2.89,1.85,2.85,0a77.38,77.38,0,0,1,2.65-22c1.56-5.64,3.79-11.49,7.57-16a14,14,0,0,1,5.59-4.39c1.7-.64,1-3.4-.76-2.75Z"/><path class="cls-4" d="M1423,750.8c-16.92,6.22-35.78,13.58-44.08,31a33,33,0,0,0-3.33,13.74,1.43,1.43,0,0,0,2.85,0c.11-8.12,3.87-15.68,9.22-21.63,5.91-6.58,13.62-11.07,21.61-14.64,4.74-2.11,9.62-3.9,14.49-5.68,1.71-.63,1-3.39-.76-2.76Z"/><path class="cls-4" d="M1592.21,808.54a61.27,61.27,0,0,1,33.78-32.9,59.83,59.83,0,0,1,13.09-3.5c1.8-.27,1-3-.76-2.76-16.74,2.49-32,12.22-41.93,25.9a61.54,61.54,0,0,0-6.93,12.5c-.7,1.69,2,2.43,2.75.76Z"/><path class="cls-4" d="M1783.15,854.81c6.49-8.18,13.12-16.3,20.63-23.57,6.68-6.47,14.31-12.6,23.2-15.67a33.35,33.35,0,0,1,14.25-1.73c1.83.19,1.81-2.67,0-2.85-19.92-2-36.39,14-48.5,27.77-4,4.56-7.82,9.27-11.59,14-1.13,1.42.87,3.46,2,2Z"/><path class="cls-4" d="M544.2,1010.64A73,73,0,0,1,547,982.87c1.85-6.18,5-15.16,12.93-15,1.83.05,1.83-2.8,0-2.85-6.13-.17-10.61,4.53-13,9.75a68.07,68.07,0,0,0-5.51,22.2,73.77,73.77,0,0,0,0,13.62c.17,1.82,3,1.84,2.85,0Z"/><path class="cls-4" d="M773.85,1067.66c-4.92-12.18-3.46-26.88,4.21-37.61,1.07-1.49-1.4-2.92-2.46-1.44-8.05,11.26-9.67,27-4.5,39.81.68,1.68,3.43.95,2.75-.76Z"/><path class="cls-4" d="M997.09,1082.06c-4-7.62-8.35-15.63-9.17-24.37-.67-7.23,1.09-15,6.61-20,1.36-1.24-.66-3.25-2-2-4.63,4.23-6.94,10.29-7.47,16.45-.58,6.9,1.3,13.67,4,20,1.66,3.92,3.64,7.68,5.62,11.44.86,1.63,3.32.18,2.46-1.44Z"/><path class="cls-4" d="M1203.84,1037c17,1.93,32.1,13.71,39.33,29.07a46.26,46.26,0,0,1,4,13.76c.23,1.8,3.08,1.82,2.85,0-2.3-18.1-14.73-34.19-31.3-41.6a50.2,50.2,0,0,0-14.91-4.08c-1.82-.21-1.81,2.65,0,2.85Z"/><path class="cls-4" d="M1435.66,1030.69a34.87,34.87,0,0,1,22.88,6.63,34.34,34.34,0,0,1,13,34.11c-.37,1.79,2.38,2.56,2.75.76a37.79,37.79,0,0,0-4-25.86,37,37,0,0,0-34.55-18.49c-1.82.13-1.84,3,0,2.85Z"/><path class="cls-4" d="M1654.2,1011.29a31.81,31.81,0,0,1,26.18.88c7.8,3.88,13.66,10.75,17.34,18.57a46.6,46.6,0,0,1,4.07,14.5c.21,1.8,3.06,1.82,2.85,0-2.13-18.9-15.28-37.15-35.22-39.08a33.61,33.61,0,0,0-16,2.38c-1.67.68-.94,3.45.76,2.75Z"/><path class="cls-1" d="M500.08,932.21c-1.73,1.81-18-19.86-40.83-20.5-7.39-.21-12.22,1.88-15.21-1.4-5.92-6.51,4.36-24.24,5.35-25.94,4.2-7.25,10.26-17.7,22.2-20.72,15.88-4,34.84,7,35.14,16.19.3,9.4-19,11.59-20.9,24.75C483.87,918,501.64,930.58,500.08,932.21Z"/><path class="cls-1" d="M1878.24,957.92c-9.53,4.42-23.52-.58-24.69-6.67-1.33-6.9,15.25-9.73,19.94-25.71,2.14-7.26,1.11-13.42,0-20-3.65-21.79-15.74-28.17-12.34-37.14,3-7.8,15.63-12.35,24.69-9.52,12.23,3.82,15.35,20.28,17.1,29.52a64.23,64.23,0,0,1,0,22.85c-2.21,14.29-7.89,23.72-14.25,34.28C1882.74,955.43,1880,957.09,1878.24,957.92Z"/><path class="cls-4" d="M440.35,901.61c5.7-4,12.61-5.39,19.44-5.85,6.36-.43,13.11-.65,19.31,1a18.94,18.94,0,0,1,9,5c1.28,1.32,3.3-.7,2-2-4.78-4.93-11.62-6.54-18.24-7a75.35,75.35,0,0,0-21.61,1.45,32.3,32.3,0,0,0-11.32,4.9c-1.49,1.05-.06,3.53,1.44,2.47Z"/><path class="cls-4" d="M1862.39,939.31a28.12,28.12,0,0,1,12.16-15.81,34.18,34.18,0,0,1,9.35-4.19,25.16,25.16,0,0,1,11.59-.84c4,.82,7.67,3.5,8.26,7.77.25,1.81,3,1,2.75-.76a11.79,11.79,0,0,0-7.17-8.78c-4.2-1.83-8.94-1.63-13.35-.8a35.84,35.84,0,0,0-20.12,11.31,29.14,29.14,0,0,0-6.22,11.34,1.43,1.43,0,0,0,2.75.76Z"/><path class="cls-5" d="M1898.2,907.84A92.7,92.7,0,0,0,1881.7,854a91.45,91.45,0,0,0-10.38-12.43,1.43,1.43,0,0,0-2,2,90,90,0,0,1,24.9,48.67,86.92,86.92,0,0,1,1.15,15.62,1.43,1.43,0,0,0,2.85,0Z"/><path class="cls-5" d="M1864.09,839.46a1.43,1.43,0,0,0,0-2.86,1.43,1.43,0,0,0,0,2.86Z"/><path class="cls-5" d="M761.92,774.75l-86.53,17.3L650.74,797c-1.8.35-1,3.11.76,2.75L738,782.43l24.66-4.93c1.79-.36,1-3.11-.76-2.75Z"/><path class="cls-5" d="M642.18,802.24a1.43,1.43,0,0,0,0-2.86,1.43,1.43,0,0,0,0,2.86Z"/></svg>