<svg id="Layer_1" data-name="Layer 1" xmlns="http://www.w3.org/2000/svg" width="1574.03" height="385.01" viewBox="0 0 1574.03 385.01"><defs><style>.cls-1{fill:#ffd12a;}.cls-2{fill:#b92900;}.cls-3{fill:#a6493f;}.cls-4{fill:#bc9c20;}.cls-5{fill:#fff;}</style></defs><ellipse class="cls-1" cx="778.56" cy="214.07" rx="773.02" ry="155.39"/><ellipse class="cls-2" cx="789.81" cy="196.77" rx="693.26" ry="117.55"/><path class="cls-3" d="M789.81,323.32c-185.67,0-360.3-12.27-491.72-34.56-64.3-10.9-114.91-23.64-150.42-37.88C107.21,234.66,87.54,217,87.54,196.77s19.67-37.89,60.13-54.11c35.51-14.23,86.12-27,150.42-37.88C429.51,82.5,604.14,70.22,789.81,70.22s360.29,12.28,491.71,34.56c64.3,10.9,114.91,23.65,150.42,37.88,40.46,16.22,60.13,33.92,60.13,54.11s-19.67,37.89-60.13,54.11c-35.51,14.24-86.12,27-150.42,37.88C1150.1,311.05,975.47,323.32,789.81,323.32Zm0-235.1c-184.69,0-358.25,12.19-488.71,34.31-63,10.69-112.4,23.08-146.73,36.84-31,12.44-48.83,26.07-48.83,37.4s17.8,25,48.83,37.4C188.7,247.93,238.06,260.33,301.1,271c130.46,22.12,304,34.3,488.71,34.3s358.25-12.18,488.7-34.3c63-10.69,112.41-23.09,146.73-36.85,31-12.44,48.83-26.07,48.83-37.4s-17.8-25-48.83-37.4c-34.32-13.76-83.69-26.15-146.73-36.84C1148.06,100.41,974.5,88.22,789.81,88.22Z"/><path class="cls-1" d="M1565.07,191.51c-7.18,75.13-95.79,120.32-104,112.28-8.62-8.44,73.8-73.69,55-127.32-9.24-26.38-38.94-39.6-102-57.14-140.49-39.09-260.54-47.85-309.64-51.18-93.91-6.38-140.88-9.3-200.37-12-146.24-6.61-300.23-7.41-456,8.83-6,.63-11.87,1.24-20,2.19-105.87,12.32-200,23.34-286,67.17C66.67,172.78,29.76,220,14,207.55c-10-8-3.76-34.22,4-51.13,18.65-40.63,61.56-64.72,167.68-90,151.2-36,223.33-42.34,223.33-42.34,181.83-16,324-16.12,361-16,202.64.42,350,13.73,386,17.11a1647.93,1647.93,0,0,1,231,29c81.78,16.26,140.27,29.88,166,77.2C1567.08,157.11,1566,182.24,1565.07,191.51Z"/><path class="cls-4" d="M1464.37,313.21a12.7,12.7,0,0,1-9.25-3.35c-6.89-6.75-.81-16.2,1.18-19.3,3-4.6,7.48-10.29,12.71-16.88,18.71-23.59,50-63.06,39-94.4-7.35-21-30.74-33.54-96.26-51.76-142.53-39.66-262.7-47.82-307.94-50.89-90.71-6.16-138.57-9.19-200.17-12-176.3-8-320.79-5.17-454.71,8.8-6.48.67-12.06,1.26-19.94,2.18C322.62,88,230.72,98.71,145.9,141.94c-33.78,17.22-60.28,36.66-79.63,50.86-19.78,14.52-34.54,25.34-46.42,25.35a17.29,17.29,0,0,1-11.09-3.94c-15.39-12.2-6.27-44.29,1.56-61.34C30.64,108.6,76,83.82,183.75,58.17,333.83,22.42,405.33,15.88,408.3,15.62,571,1.32,704.79-.58,770.07-.45c181.3.38,320,10.89,386.67,17.13a1663.83,1663.83,0,0,1,232,29.15c40.66,8.08,76.68,15.72,105.55,27.4,32.24,13,53.3,30.22,66.26,54.07,14.21,26.13,14.24,52,13,65h0c-6.21,64.91-67.48,107.56-96.17,118C1473.54,311.76,1468.8,313.21,1464.37,313.21ZM721.13,43.26c57.51,0,118.26,1.48,183.31,4.42,61.78,2.79,109.72,5.82,200.56,12,45.72,3.1,167.15,11.35,311.35,51.47,64.44,17.92,97,31.85,107.74,62.52,14.09,40.18-20.88,84.25-41.77,110.58-2.15,2.71-4.49,5.67-6.63,8.46,9.26-4.08,22.74-11.86,36.8-24.18,18.26-16,40.74-42.49,44.12-77.82h0c1.06-11.13,1.05-33.12-11-55.28-23.35-42.95-76.1-56.2-160.19-72.92a1647.22,1647.22,0,0,0-229.77-28.85l-.33,0C1089,27.41,950.8,16.92,770,16.55c-65-.15-198.19,1.76-360.25,16-.71.07-73.45,6.75-222.1,42.15C134.61,87.34,98.21,99.56,73.13,113.14,49.32,126,34.71,140.48,25.77,160c-9.32,20.29-10,38.06-6.45,40.92.51.4,3,.39,8.64-2.57,7.18-3.76,16.48-10.58,28.25-19.22,19.82-14.55,47-34.46,82-52.31,87.54-44.61,180.85-55.47,288.89-68,8-.93,13.6-1.52,20.14-2.2C532.5,47.65,622,43.26,721.13,43.26Z"/><path class="cls-1" d="M1543.07,170.46c-9.24-3.81-20.26,33.65-61,63.15-21.77,15.77-43.37,23.13-67,29.08-153.09,38.56-388.34,45.52-388.34,45.52-160.11,4.74-124.37,9-252.83,11.61-234.59,4.79-350-9-350-9C255.71,292.05,171.62,282.67,110,226.6c-34.38-31.31-69.13-79.48-89-70.18-13.85,6.49-15.91,39.15-7.81,63.94,6.86,20.94,27.9,57.45,160.81,98.47,52.91,16.33,130.63,35.56,229,43.11,127.78,12,236.73,15.1,321,15,106.6-.08,191.17-5.24,240.35-8.32,76.36-4.79,57.51-3.64,187.54-15.83,31-2.9,133.29-9.25,259-33,45.18-8.54,96.61-19.84,123.15-62.14C1555.45,223.6,1555.61,175.62,1543.07,170.46Z"/><path class="cls-4" d="M721.67,385.48c-105.33,0-212.76-5.07-319.34-15.07A1058.93,1058.93,0,0,1,171.54,327c-59.08-18.23-102.9-37.76-130.24-58.06C16.28,250.33,8.69,233.81,5.16,223-3,198.09-3.26,158.41,17.44,148.72c19.79-9.27,43,15,69.9,43.15,9.31,9.74,18.94,19.81,28.43,28.44,59.53,54.22,142.93,63.52,309.07,82,1.22.14,117.76,13.69,348.89,9,63.56-1.3,86.71-3,113.53-4.95,27.38-2,58.42-4.26,139.22-6.65,2.35-.07,236.1-7.39,386.51-45.27,23.77-6,43.76-13,64.1-27.72,21.82-15.8,34.93-34.39,43.61-46.68,3.76-5.33,6.73-9.54,9.64-12.58,6.5-6.79,12.27-6.4,16-4.87h0c5.06,2.08,8.79,6.77,11.09,13.94,6.11,19.09,1.68,57.26-16.13,85.65-12.87,20.52-32,35.91-58.49,47.05-22.47,9.46-47,14.54-70.29,18.93-108.85,20.58-199.57,28.1-243.17,31.71-6.91.57-12.37,1-16.57,1.42-26.78,2.51-47.24,4.45-63.52,6-62.33,5.92-63.52,6-124.29,9.84-46.07,2.88-131.83,8.26-240.88,8.34ZM26.46,163.77a4.11,4.11,0,0,0-1.81.35c-7,3.27-11.34,29.12-3.34,53.6,3.05,9.32,9.23,22,30.12,37.52,25.79,19.14,67.89,37.8,125.12,55.47A1041.6,1041.6,0,0,0,403.7,353.46l.14,0c106.89,10,214.63,15.1,320.21,15,108.53-.08,193.94-5.43,239.83-8.31,60.5-3.79,60.5-3.79,123.74-9.8,16.28-1.54,36.75-3.49,63.54-6,4.3-.4,9.8-.86,16.76-1.44,43.31-3.58,133.44-11.05,241.42-31.46,48.4-9.15,93.81-20.5,117.53-58.31,8.4-13.38,14.13-30.84,15.73-47.88,1.14-12.2-.22-20.15-1.61-24.18-1.91,2.39-4.32,5.79-6.4,8.75-9.33,13.21-23.42,33.19-47.53,50.65-23.86,17.28-47.7,24.84-69.91,30.43-152.23,38.35-387.8,45.71-390.16,45.78-80.44,2.38-111.28,4.63-138.49,6.62-27.06,2-50.42,3.68-114.42,5q-51.48,1.05-95.46,1c-169.24,0-254.75-10-255.73-10.08-169.73-18.93-255-28.43-318.57-86.36-9.92-9-19.75-19.32-29.27-29.26-11.84-12.39-23-24.09-32.81-31.75C33.68,165.17,28.94,163.77,26.46,163.77Zm1513,14.32h0Z"/><path class="cls-4" d="M196.57,67.82c11.63,1.26,21.22,11.12,23.74,22.32a24.66,24.66,0,0,1,.25,9.83c-.34,1.89,2.55,2.71,2.9.8,2.33-13-4.88-26.48-16.32-32.68a28.5,28.5,0,0,0-10.57-3.27c-1.91-.21-1.9,2.8,0,3Z"/><path class="cls-4" d="M489.61,21.91a53.93,53.93,0,0,1,13.47,39.46c-.13,1.93,2.87,1.92,3,0a56.94,56.94,0,0,0-14.35-41.59c-1.3-1.44-3.41.69-2.12,2.13Z"/><path class="cls-4" d="M781.16,6.08C776,8,772.4,12.84,769.89,17.6a66.88,66.88,0,0,0-6.65,21.53,87.7,87.7,0,0,0-.93,14.57c0,1.93,3,1.94,3,0a81.19,81.19,0,0,1,2.79-23.22c1.64-5.94,4-12.1,8-16.88A14.7,14.7,0,0,1,782,9c1.79-.67,1-3.58-.8-2.9Z"/><path class="cls-4" d="M1050.29,18.05c-17.81,6.55-37.67,14.3-46.41,32.61a34.48,34.48,0,0,0-3.5,14.47,1.5,1.5,0,0,0,3,0c.11-8.55,4.07-16.51,9.7-22.78,6.22-6.92,14.34-11.66,22.76-15.41,5-2.22,10.12-4.1,15.25-6,1.8-.66,1-3.56-.8-2.9Z"/><path class="cls-4" d="M1228.41,78.84A64.5,64.5,0,0,1,1264,44.21a62.63,62.63,0,0,1,13.78-3.69c1.9-.28,1.09-3.18-.8-2.9-17.62,2.62-33.72,12.86-44.14,27.27a64.75,64.75,0,0,0-7.3,13.15c-.74,1.79,2.16,2.57,2.89.8Z"/><path class="cls-4" d="M1429.45,127.56c6.83-8.61,13.82-17.16,21.72-24.82,7-6.81,15.07-13.26,24.43-16.49a34.94,34.94,0,0,1,15-1.82c1.92.2,1.91-2.81,0-3-21-2.15-38.32,14.76-51.06,29.25-4.22,4.79-8.24,9.76-12.21,14.76-1.19,1.5.92,3.64,2.12,2.13Z"/><path class="cls-4" d="M125,291.63a77,77,0,0,1,2.9-29.23c2-6.51,5.31-16,13.61-15.74,1.93.05,1.93-3,0-3-6.45-.17-11.17,4.77-13.72,10.27A71.73,71.73,0,0,0,122,277.29a78.06,78.06,0,0,0,0,14.34c.18,1.91,3.18,1.93,3,0Z"/><path class="cls-4" d="M366.78,351.67c-5.18-12.82-3.63-28.31,4.44-39.6,1.13-1.58-1.47-3.08-2.59-1.52-8.48,11.86-10.18,28.44-4.74,41.92.71,1.77,3.62,1,2.89-.8Z"/><path class="cls-4" d="M601.83,366.83c-4.23-8-8.79-16.46-9.65-25.66-.71-7.62,1.14-15.78,7-21.08,1.44-1.3-.69-3.42-2.12-2.12-4.88,4.45-7.31,10.82-7.86,17.31-.62,7.26,1.36,14.4,4.17,21,1.75,4.12,3.83,8.09,5.92,12,.91,1.72,3.5.2,2.59-1.51Z"/><path class="cls-4" d="M819.51,319.38c17.9,2,33.8,14.43,41.41,30.61a48.77,48.77,0,0,1,4.25,14.48c.24,1.89,3.24,1.92,3,0-2.43-19.06-15.51-36-33-43.8a53.15,53.15,0,0,0-15.7-4.3c-1.91-.22-1.9,2.79,0,3Z"/><path class="cls-4" d="M1063.59,312.75a36.63,36.63,0,0,1,24.08,7,36.12,36.12,0,0,1,13.66,35.91c-.38,1.89,2.51,2.7,2.89.8A39.78,39.78,0,0,0,1100,329.2a38.91,38.91,0,0,0-36.37-19.46c-1.92.13-1.93,3.14,0,3Z"/><path class="cls-4" d="M1293.68,292.32a33.47,33.47,0,0,1,27.56.92c8.22,4.09,14.39,11.32,18.26,19.56a48.87,48.87,0,0,1,4.29,15.26c.22,1.9,3.22,1.92,3,0-2.24-19.9-16.09-39.11-37.08-41.15a35.42,35.42,0,0,0-16.82,2.51c-1.77.72-1,3.63.79,2.9Z"/><path class="cls-1" d="M78.54,209.05c-1.82,1.92-19-20.91-43-21.58-7.77-.22-12.86,2-16-1.48-6.23-6.84,4.59-25.52,5.63-27.3,4.42-7.64,10.8-18.64,23.37-21.82,16.73-4.23,36.69,7.34,37,17,.32,9.9-20,12.21-22,26.07C61.48,194.08,80.18,207.34,78.54,209.05Z"/><path class="cls-1" d="M1529.57,236.12c-10,4.66-24.76-.61-26-7-1.4-7.27,16.06-10.24,21-27.07,2.25-7.64,1.16-14.13,0-21.05-3.84-22.94-16.58-29.65-13-39.1,3.12-8.21,16.46-13,26-10,12.87,4,16.16,21.35,18,31.08a67.64,67.64,0,0,1,0,24.06c-2.33,15.05-8.31,25-15,36.09C1534.3,233.5,1531.46,235.25,1529.57,236.12Z"/><path class="cls-4" d="M15.65,176.83c6-4.23,13.28-5.67,20.48-6.15,6.69-.45,13.79-.69,20.33,1A20.07,20.07,0,0,1,65.89,177c1.35,1.39,3.47-.73,2.12-2.12-5-5.19-12.23-6.88-19.2-7.33a79.4,79.4,0,0,0-22.76,1.53,33.94,33.94,0,0,0-11.91,5.16c-1.57,1.1-.07,3.71,1.51,2.59Z"/><path class="cls-4" d="M1512.88,216.53a29.61,29.61,0,0,1,12.8-16.65,36,36,0,0,1,9.85-4.4,26.56,26.56,0,0,1,12.2-.9c4.21.87,8.07,3.69,8.69,8.19.27,1.91,3.16,1.09,2.9-.8-.58-4.18-3.77-7.61-7.55-9.25-4.42-1.92-9.41-1.72-14-.84a37.77,37.77,0,0,0-21.18,11.9,30.79,30.79,0,0,0-6.55,11.95,1.5,1.5,0,0,0,2.89.8Z"/><path class="cls-5" d="M1550.58,183.4a97.59,97.59,0,0,0-17.37-56.73,95.78,95.78,0,0,0-10.93-13.09,1.5,1.5,0,0,0-2.12,2.12A94.88,94.88,0,0,1,1546.38,167a91.49,91.49,0,0,1,1.2,16.45,1.5,1.5,0,0,0,3,0Z"/><path class="cls-5" d="M1514.67,111.4a1.51,1.51,0,0,0,0-3,1.51,1.51,0,0,0,0,3Z"/><path class="cls-5" d="M354.22,43.27,263.13,61.48l-26,5.19c-1.89.38-1.09,3.28.79,2.9l91.1-18.21,26-5.19c1.89-.38,1.09-3.28-.8-2.9Z"/><path class="cls-5" d="M228.15,72.21a1.51,1.51,0,0,0,0-3,1.51,1.51,0,0,0,0,3Z"/></svg>