<svg id="Layer_1" data-name="Layer 1" xmlns="http://www.w3.org/2000/svg" width="100" height="100" viewBox="0 0 100 100"><defs><style>.cls-1{fill:#ffd12a;}.cls-2{fill:#fff;}.cls-3{fill:#b92900;}</style></defs><rect class="cls-1" width="100" height="100" rx="30"/><path class="cls-2" d="M95.49,29.5h-1A.49.49,0,0,1,94,29a24.2,24.2,0,0,0-2.88-11A25.17,25.17,0,0,0,79.56,7.4a28.81,28.81,0,0,0-13-2.91A.49.49,0,0,1,66,4l0-1a.5.5,0,0,1,.49-.52,30.82,30.82,0,0,1,14,3.11A27.15,27.15,0,0,1,92.88,17,26.25,26.25,0,0,1,96,29,.51.51,0,0,1,95.49,29.5Z"/><path class="cls-3" d="M58,76.36c-1.8.75-3.92-.26-8.14-3.38-4.76-3.53-11.5-8.31-20.38-14a2,2,0,0,1-.93-1.69V46.61A2,2,0,0,1,29.35,45c7.93-6.2,14.87-11.44,20.54-15.65C54,26.34,56.2,25.22,58,26c3.15,1.33,2.54,7.44,2.55,24.32C60.58,68.57,61.29,75,58,76.36Z"/><rect class="cls-3" x="19.58" y="45.32" width="8" height="13" rx="2"/><path class="cls-3" d="M64.76,66.6,63.38,66a.25.25,0,0,1-.13-.32,38,38,0,0,0,0-28.78.24.24,0,0,1,.13-.32L64.76,36a.27.27,0,0,1,.34.14,40,40,0,0,1,0,30.3A.26.26,0,0,1,64.76,66.6Z"/><path class="cls-3" d="M69.44,72.51l-.92-.39a.5.5,0,0,1-.26-.65,50.43,50.43,0,0,0,3.82-20.62,49.73,49.73,0,0,0-3.82-17.69.49.49,0,0,1,.26-.64l.92-.4a.52.52,0,0,1,.67.27,51.65,51.65,0,0,1,4,18.4,52.4,52.4,0,0,1-4,21.45A.51.51,0,0,1,69.44,72.51Z"/><path class="cls-3" d="M74.23,77l-.92-.4a1,1,0,0,1-.51-1.3,60.34,60.34,0,0,0,4.78-25.42,59.83,59.83,0,0,0-4.77-21.56,1,1,0,0,1,.5-1.3l.92-.41a1,1,0,0,1,1.33.52,62.77,62.77,0,0,1,5,22.65,63.44,63.44,0,0,1-5,26.7A1,1,0,0,1,74.23,77Z"/></svg>