<svg id="Layer_1" data-name="Layer 1" xmlns="http://www.w3.org/2000/svg" width="356.41" height="518.56" viewBox="0 0 356.41 518.56"><defs><style>.cls-1{fill:#eb5a24;}.cls-2{fill:#762d12;}.cls-3{fill:none;}.cls-4{fill:#008827;}.cls-5{fill:#fff;}</style></defs><ellipse class="cls-1" cx="170.22" cy="180.43" rx="64.67" ry="83"/><path class="cls-1" d="M158.61,309.91c-10.45,150.77-16.85,189.2-39.79,195.89C107.73,509,97.28,503.54,89,499.16,54.54,481,41.46,441.86,26,369.68-.06,248.49-12.49,187,16,143.91c5.77-8.73,23.61-35.72,53.06-39.84,40.4-5.66,73.19,35.83,76.28,39.84C166.19,171,166.35,198.33,158.61,309.91Z"/><path class="cls-1" d="M264.69,355.53c7,72.62,14.36,89.85.05,117.07-3.24,6.15-22.38,42.53-58.41,46.36C174,522.39,150,497.28,148.66,495.84c-24-25.87-12.44-53.57-13.21-135.26-.93-98-18.26-135.24,9.9-163.55,3.4-3.42,21.85-21.17,46.43-19.92,21.87,1.11,36.93,16.67,43.11,23.24C262.48,229.68,255.57,260.44,264.69,355.53Z"/><path class="cls-1" d="M228.26,309c38.62,115.12,33.22,181.43,63,186.82,18.24,3.3,35.67-18.78,43.11-28.2,15.6-19.75,27.68-49.37,19.9-158.62-7.22-101.25-11.54-152.43-46.43-179.77-4.67-3.66-29.15-22.85-59.69-17.63-25.78,4.41-47,24.67-56.38,45.83C175.23,194.79,200.09,225,228.26,309Z"/><path class="cls-2" d="M145.73,477.67a94,94,0,0,1-.7-56.94c1.87-6.15-7.73-8.78-9.59-2.65a103.52,103.52,0,0,0,.69,62.24c2,6.06,11.61,3.47,9.6-2.65Z"/><path class="cls-2" d="M273.26,464.84a182.09,182.09,0,0,0-4.07-63.78c-1.52-6.23-11.12-3.59-9.6,2.65a174,174,0,0,1,3.72,61.13c-.3,2.67,2.51,5,5,5,2.94,0,4.66-2.3,5-5Z"/><path class="cls-3" d="M191.35,177.28a14.51,14.51,0,0,1-10.48,12.21c-5.38,1.76-12.54-.73-16.15-5.44A124.79,124.79,0,0,1,191.35,177.28Z"/><path class="cls-4" d="M227.2,24.62a124.12,124.12,0,0,0-13.67,14c-.13.17-.26.3-.36.43-.3.4-.47.6-.47.6a5.59,5.59,0,0,1-.43.6c-.89,1.26-1.76,2.49-2.62,3.75-1.69,2.56-3.31,5.15-4.81,7.8-1.62,2.89-3.15,5.81-4.54,8.77-.5,1.06-1,2.12-1.46,3.22a.11.11,0,0,0,0,.07s0,0,0,.06v0a.64.64,0,0,0-.06.14v0s0,0,0,.07a.22.22,0,0,1,0,.13c-.36.9-1.09,2.69-1.22,3A150.45,150.45,0,0,0,192,85c-.76,3.09-1.43,6.18-2,9.3-.33,1.89-.63,3.72-.9,5.61a1.57,1.57,0,0,0,0,.16v.07a.34.34,0,0,1,0,.17v.13c0,.07,0,.13,0,.2-.09.83-.23,2.16-.26,2.39a213.94,213.94,0,0,0-1.19,24q.09,11.27,1.09,22.48c.33,3.75.73,7.5,1.16,11.22l.3,2.39a1.61,1.61,0,0,0,0,.24.55.55,0,0,0,0,.23c0,.26.09.66.16,1.16.13.86.23,1.73.37,2.59.16,1.26.36,2.52.56,3.78a20.51,20.51,0,0,1,.07,6.15,124.79,124.79,0,0,0-26.63,6.77,10.78,10.78,0,0,1-2.23-5c-.23-1.49-.43-3-.66-4.45-4.68-32.4-6.4-65.44,1.39-97.54,6.74-27.83,21-54.79,42.88-73.58,6.34-5.44,14.76-5.81,21.1,0C232.83,8.68,233.13,19.51,227.2,24.62Z"/><path class="cls-2" d="M199.39,175.83c11.87-2,22.74,7.48,30.54,15.66,8.47,8.88,16.55,18.93,19.79,31.27,1.62,6.17,10.78,3.55,9.15-2.65-3.83-14.57-13.37-26.71-23.55-37-10.42-10.56-23.4-19.34-38.45-16.85-2.54.41-3.94,3.74-3.32,6.12.75,2.84,3.3,3.9,5.84,3.48Z"/><path class="cls-2" d="M154.66,175.59c-21.14,15.2-34.41,40.53-35.08,67.44-.16,6.41,9.33,6.41,9.49,0,.58-23.23,12.08-45.68,30.38-58.84,5-3.6.27-12.23-4.79-8.6Z"/><path class="cls-2" d="M161.66,172.42c-10.83-24.79-23.46-50.61-50.4-61.48-5.77-2.33-8.63,7-2.92,9.28,24,9.71,35,35.14,44.6,57,2.45,5.61,11.15.77,8.72-4.81Z"/><path class="cls-2" d="M198,170.45a88.38,88.38,0,0,1,36.46-43.08c5.23-3.16-.44-11.35-5.65-8.2a96.83,96.83,0,0,0-39.63,46.92c-2.3,5.75,6.5,10.14,8.82,4.36Z"/><path class="cls-2" d="M207.53,176.11a127.06,127.06,0,0,0-16.18,1.17,124.79,124.79,0,0,0-26.63,6.77c-3.09,1.19-6.11,2.46-9.09,3.88a5.07,5.07,0,0,1-6.8-1.79c-1.26-2.16-.63-5.64,1.79-6.8,3.68-1.76,7.43-3.32,11.21-4.72a133.28,133.28,0,0,1,45.7-8.47C213.93,166.12,213.93,176.08,207.53,176.11Z"/><path class="cls-5" d="M334,207.86c-3.64-30.85-16.58-62.43-45.36-77.63-5.66-3-10.69,5.61-5,8.6,25.5,13.47,37.2,41.61,40.43,69,.32,2.69,2.06,4.95,5,5,2.44,0,5.29-2.31,5-5Z"/><path class="cls-5" d="M269.72,133.29c6.41,0,6.42-10,0-10s-6.41,10,0,10Z"/></svg>