<svg id="Layer_1" data-name="Layer 1" xmlns="http://www.w3.org/2000/svg" width="389" height="345" viewBox="0 0 389 345"><defs><style>.cls-1{fill:#b92900;}.cls-2{fill:#a6493f;}.cls-3{fill:#ff9895;}.cls-4{fill:#fff;}</style></defs><ellipse class="cls-1" cx="194.5" cy="172.5" rx="185.5" ry="163.5"/><path class="cls-2" d="M194.5,345c-51.74,0-100.44-17.81-137.12-50.14C20.38,262.25,0,218.79,0,172.5S20.38,82.75,57.38,50.14C94.06,17.81,142.76,0,194.5,0S294.94,17.81,331.62,50.14C368.62,82.75,389,126.21,389,172.5s-20.38,89.75-57.38,122.36C294.94,327.19,246.24,345,194.5,345Zm0-327C97.18,18,18,87.31,18,172.5S97.18,327,194.5,327,371,257.69,371,172.5,291.82,18,194.5,18Z"/><ellipse class="cls-3" cx="260.5" cy="87" rx="35" ry="43.5" transform="translate(64.24 279.13) rotate(-62.86)"/><ellipse class="cls-3" cx="112.53" cy="100.44" rx="20.94" ry="26.02" transform="translate(-28.18 154.76) rotate(-62.86)"/><ellipse class="cls-3" cx="129.15" cy="240.56" rx="42.18" ry="52.43" transform="translate(-143.84 245.75) rotate(-62.86)"/><ellipse class="cls-3" cx="277.85" cy="227.14" rx="31.1" ry="38.65" transform="translate(-51.03 370.78) rotate(-62.86)"/><path class="cls-4" d="M279.88,70.71a26.92,26.92,0,0,1,6.9,34.08,27.92,27.92,0,0,1-7.16,8.36c-1.27,1-1.05,3.19,0,4.24a3.07,3.07,0,0,0,4.24,0,32.64,32.64,0,0,0,7.88-41.93,33.73,33.73,0,0,0-8.84-9.93c-1.28-1-3.35-.2-4.1,1.08a3.07,3.07,0,0,0,1.08,4.1Z"/><path class="cls-4" d="M274,65.29c3.86,0,3.87-6,0-6s-3.86,6,0,6Z"/></svg>