<svg id="Layer_1" data-name="Layer 1" xmlns="http://www.w3.org/2000/svg" width="131.14" height="131.73" viewBox="0 0 131.14 131.73"><defs><style>.cls-1{fill:#ffd12a;}.cls-2{fill:#b92900;}.cls-3{fill:#a6493f;}.cls-4{fill:#bc9c20;}.cls-5{fill:none;}.cls-6{fill:#fff;}</style></defs><path class="cls-1" d="M131.13,55.53a8,8,0,0,1-2.52,5.72c-.37.4-.78.8-1.24,1.21l-.24.21a35.24,35.24,0,0,1-5,3.48q-2.22,1.32-5,2.68l-.4.2c-1.43.71-3,1.42-4.6,2.15l-.93.41c-1.29.57-2.64,1.14-4.06,1.73C97.8,77.21,85.74,81.62,71,87c-7.56,2.77-14,5-19.62,6.74l-1.11.34-.92.28c-2.53.78-4.85,1.46-7,2-2.58.7-4.9,1.28-7,1.75-2.69.59-5,1-7,1.28-1.07.14-2.06.24-3,.31-.52,0-1,.06-1.47.08a21.64,21.64,0,0,1-4.59-.3,11.46,11.46,0,0,1-4-1.53C4.68,91.69,4.46,77.1,4.14,55.53c-.13-8.46-.25-16.6.22-23.87V31.6A70.17,70.17,0,0,1,6.31,18.35s0-.07,0-.1C8.09,11.59,11.16,6.57,16.39,4a13.62,13.62,0,0,1,2.73-1h0c9-2.12,20.53,6.1,64.08,26C120.71,46.16,130.93,48.65,131.13,55.53Z"/><path class="cls-1" d="M49.33,93.73v23.5a3.5,3.5,0,0,1-7,0V93.73Z"/><path class="cls-2" d="M123.33,55.06c.18,5.56-16,11.2-48.36,22.27C40,89.27,29.33,90.66,24.53,86.84c-2.07-1.65-2.49-4.9-3.33-11.39a76.14,76.14,0,0,1,0-20.39c3.5-22.83,5.14-34.38,9.85-36.39,7.8-3.33,15.07,2.13,53.73,17.67C115,48.44,123.18,50.2,123.33,55.06Z"/><path class="cls-3" d="M31.47,90.22c-3.6,0-6.06-.77-7.87-2.21-2.55-2-3-5.48-3.89-12.37a78.14,78.14,0,0,1,.05-20.8L20,53.05c3.52-23,5.12-33.48,10.47-35.76,6.33-2.7,11.87-.35,30.25,7.44,6.43,2.72,14.43,6.12,24.63,10.21,6.9,2.77,12.73,5,17.41,6.85,16.81,6.52,21.89,8.48,22,13.23.21,6.45-12.52,11.13-49.37,23.73C52.23,86.69,39.21,90.22,31.47,90.22Zm4.16-71a9.66,9.66,0,0,0-4,.81C27.86,21.68,26,33.65,23,53.5l-.28,1.79a75.41,75.41,0,0,0,0,20c.76,5.89,1.18,9.13,2.78,10.4,4.54,3.62,17.37,1.07,49-9.75,27.57-9.43,47.49-16.24,47.34-20.8h0c-.09-2.76-5.54-4.87-20.12-10.52C97,42.77,91.18,40.5,84.26,37.73,74,33.62,66,30.22,59.58,27.49,46.35,21.88,40.12,19.24,35.63,19.24Z"/><path class="cls-1" d="M18,100c-4.37.87-8.7-3.62-9.09-4A13,13,0,0,1,5.3,86.7,211,211,0,0,1,7,14.72,13.13,13.13,0,0,1,7.63,11,11.37,11.37,0,0,1,11,5.63c4.55-3.92,11.21-2.89,15.2-.46,1,.6,4.63,3,6.76,10.16,3.08,10.39-.26,19.92-1.57,24-3.08,9.55-6.16,23.68-6,43.87C26.76,92.2,22.58,99.1,18,100Z"/><path class="cls-4" d="M16.82,103.12C12,103.12,8,99.32,6.73,98A15.91,15.91,0,0,1,2.3,86.9,214.12,214.12,0,0,1,4,14.38a16.79,16.79,0,0,1,.75-4.26A14.28,14.28,0,0,1,9.08,3.36C14.76-1.53,22.76-.46,27.8,2.61c2.07,1.26,5.88,4.48,8.07,11.87,3.24,10.89,0,21-1.43,25.28l-.15.46c-4,12.37-6,26.74-5.9,42.72,1.55,10.86-3.86,18.83-9.82,20A9.6,9.6,0,0,1,16.82,103.12ZM18.46,6A8.21,8.21,0,0,0,13,7.9a8.44,8.44,0,0,0-2.51,4A10.34,10.34,0,0,0,10,14.77L10,15.3a207.5,207.5,0,0,0-1.68,71l0,.25v.26a9.94,9.94,0,0,0,2.77,7.13c1.23,1.28,4.11,3.59,6.34,3.16h0c2.86-.57,6.15-6,5-13.44l0-.43c-.1-16.7,2-31.78,6.19-44.81l.15-.48c1.33-4.09,4.1-12.61,1.39-21.71-1.68-5.67-4.36-7.8-5.44-8.46A12.64,12.64,0,0,0,18.46,6Z"/><path class="cls-5" d="M117.14,68.83V69h-.4Z"/><path class="cls-1" d="M35.33,96.73v31.5a3.5,3.5,0,0,1-7,0V96.73Z"/><path class="cls-1" d="M42.33,95.73v18.5a3.5,3.5,0,0,0-7,0V95.73Z"/><path class="cls-1" d="M50.25,94.11a2.5,2.5,0,0,0-.35.21,2.85,2.85,0,0,0-.57.47v-.4l.67-.2Z"/><path class="cls-1" d="M28.33,99.47v3.76a3.48,3.48,0,0,0-3-3.45C26.27,99.71,27.26,99.61,28.33,99.47Z"/><path class="cls-1" d="M49.9,94.32a3.49,3.49,0,0,0-.57,1.91V94.79A2.85,2.85,0,0,1,49.9,94.32Z"/><path class="cls-6" d="M23.85,45.19l-1-.13a.5.5,0,0,1-.44-.56,47.61,47.61,0,0,1,2-8.69c.3-.91.56-1.61.81-2.27a29.66,29.66,0,0,0,1.17-3.66,27.08,27.08,0,0,0,1-6.76,24.1,24.1,0,0,0-.83-6.24.49.49,0,0,1,.33-.61l1-.28a.51.51,0,0,1,.63.35,25.76,25.76,0,0,1,.91,6.79,28.66,28.66,0,0,1-1,7.24,34.14,34.14,0,0,1-1.24,3.88c-.24.63-.49,1.31-.78,2.19a46.26,46.26,0,0,0-1.9,8.32A.49.49,0,0,1,23.85,45.19Z"/><path class="cls-6" d="M25.9,13.39a.5.5,0,0,1-.66-.14A7.28,7.28,0,0,0,22.85,11a7.8,7.8,0,0,0-2.68-.88A10.21,10.21,0,0,0,17,10a.5.5,0,0,1-.56-.41l-.18-1a.51.51,0,0,1,.43-.59,12.61,12.61,0,0,1,3.83.08,9.68,9.68,0,0,1,3.32,1.12,9.06,9.06,0,0,1,3.09,2.92.49.49,0,0,1-.17.7Z"/></svg>