<svg id="Layer_1" data-name="Layer 1" xmlns="http://www.w3.org/2000/svg" width="383" height="301" viewBox="0 0 383 301"><defs><style>.cls-1{fill:#ffd12a;}.cls-2{fill:#b92900;}.cls-3{fill:#a6493f;}.cls-4{fill:#bc9c20;}.cls-5{fill:none;}.cls-6{fill:#fff;}</style></defs><path class="cls-1" d="M382.64,162.09c.18,5.74-2.27,11.19-7.35,16.67a48.69,48.69,0,0,1-3.61,3.53l-.7.61a102.44,102.44,0,0,1-14.58,10.15c-4.31,2.56-9.18,5.16-14.57,7.81-.38.21-.79.38-1.17.59-4.17,2.07-8.63,4.13-13.41,6.26-.87.41-1.81.79-2.71,1.2-3.76,1.66-7.7,3.32-11.84,5-27.22,11.34-62.38,24.2-105.41,40-97,35.51-133.37,39.79-150.63,36.53A33.46,33.46,0,0,1,44.91,286C14,267.5,13.37,225,12.44,162.09c-.38-24.66-.73-48.39.64-69.59v-.17C14,78.13,15.73,65.1,18.76,53.7c0-.09,0-.2.06-.29C24,34,32.9,19.36,48.15,12a39.2,39.2,0,0,1,8-2.92h.08C82.43,2.86,116,26.82,243,84.84,352.26,134.77,382.06,142,382.64,162.09Z"/><path class="cls-1" d="M371,175.21v68.51a7.29,7.29,0,0,1-14.58,0V175.21Z"/><path class="cls-1" d="M356.4,189.78v27.7a7.29,7.29,0,1,0-14.57,0v-27.7Z"/><path class="cls-2" d="M356.4,161.76c.51,16.64-46.09,33.56-139.33,66.72-100.66,35.8-131.51,40-145.34,28.52-6-4.95-7.18-14.68-9.6-34.14a237.53,237.53,0,0,1,.12-61.1C72.32,93.32,77.06,58.69,90.64,52.66c22.46-10,43.41,6.4,154.81,53C332.26,141.9,356,147.17,356.4,161.76Z"/><path class="cls-3" d="M91.7,267c-10.41,0-17.52-2.3-22.76-6.63-7.31-6.05-8.59-16.39-11.14-37a243.26,243.26,0,0,1,.13-62.28l.78-5.33C68.83,86.94,73.45,55.51,88.86,48.66c18.29-8.12,34.29-1.07,87.3,22.31,18.53,8.16,41.58,18.33,71,30.62,19.87,8.3,36.67,15.07,50.16,20.51,48.43,19.53,63,25.43,63.48,39.52h0c.6,19.2-36.08,33.23-142.24,71C151.59,256.41,114,267,91.7,267Zm12-212.74a27,27,0,0,0-11.31,2.4c-11,4.89-16.29,40.84-25,100.4l-.78,5.33a234.56,234.56,0,0,0-.11,59.93c2.2,17.71,3.41,27.47,8,31.31,13,10.79,50,3.14,141.08-29.26C295.05,196.11,352.46,175.7,352,161.89c-.26-8.39-16-14.73-58-31.68-13.52-5.45-30.34-12.23-50.26-20.56C214.29,97.34,191.19,87.15,172.63,79,134.54,62.17,116.59,54.26,103.72,54.26Z"/><path class="cls-1" d="M52.79,291.73C40,294.25,27.43,281.15,26.3,280a37.83,37.83,0,0,1-10.5-27,614.45,614.45,0,0,1,5-209.84,39.67,39.67,0,0,1,1.8-10.83,33.33,33.33,0,0,1,10-15.66C45.81,5.19,65.22,8.2,76.84,15.27,79.72,17,90.35,24,96.55,44.9c9,30.27-.75,58.05-4.57,69.88-9,27.82-18,69-17.61,127.88C78.36,269,66.18,289.08,52.79,291.73Z"/><path class="cls-4" d="M49.39,300.8C35.27,300.8,23.52,289.72,20,286A46.24,46.24,0,0,1,7.05,253.52a623.28,623.28,0,0,1,5-211.39,49.65,49.65,0,0,1,2.17-12.44A41.74,41.74,0,0,1,26.83,10C43.38-4.26,66.71-1.13,81.39,7.8c6,3.68,17.15,13.07,23.55,34.61,9.43,31.76-.12,61.15-4.2,73.69l-.44,1.36c-11.63,36.05-17.42,78-17.19,124.54,4.54,31.64-11.24,54.87-28.62,58.31A26.36,26.36,0,0,1,49.39,300.8ZM54.15,17.7a23.88,23.88,0,0,0-15.91,5.54,24.52,24.52,0,0,0-7.3,11.6,31,31,0,0,0-1.42,8.41l-.16,1.55a605.66,605.66,0,0,0-4.91,206.85l.11.75v.75a28.9,28.9,0,0,0,8.08,20.78c3.57,3.74,12,10.5,18.47,9.22h0C59.44,281.5,69,265.8,65.72,244l-.1-1.26c-.29-48.7,5.78-92.65,18-130.63l.45-1.39C88,98.77,96.05,73.94,88.17,47.39,83.26,30.88,75.43,24.66,72.29,22.74A36.65,36.65,0,0,0,54.15,17.7Z"/><path class="cls-5" d="M341.83,200.86v.59h-1.17C341,201.24,341.45,201.07,341.83,200.86Z"/><path class="cls-1" d="M341.83,200.86v.59h-1.17C341,201.24,341.45,201.07,341.83,200.86Z"/><path class="cls-1" d="M341.83,201.45v53.93a7.29,7.29,0,0,1-14.58,0V201.45Z"/><path class="cls-1" d="M327.25,207.71v6.85a7.16,7.16,0,0,0-2.71-5.65C325.44,208.5,326.38,208.12,327.25,207.71Z"/><path class="cls-1" d="M371.68,182.29a6.83,6.83,0,0,0-.67,2.51,4.16,4.16,0,0,0,0,.61V182.9Z"/><path class="cls-6" d="M69.27,131.66l-2.9-.36a1.47,1.47,0,0,1-1.27-1.65,139.93,139.93,0,0,1,5.76-25.32c.88-2.66,1.64-4.7,2.36-6.61a83.94,83.94,0,0,0,3.41-10.67,78.34,78.34,0,0,0,2.83-19.71A69.43,69.43,0,0,0,77,49.12a1.43,1.43,0,0,1,1-1.76l2.8-.82a1.48,1.48,0,0,1,1.84,1,75.37,75.37,0,0,1,2.63,19.79,83.43,83.43,0,0,1-3,21.11,90.19,90.19,0,0,1-3.61,11.31c-.69,1.84-1.44,3.82-2.29,6.39a135.86,135.86,0,0,0-5.52,24.26A1.43,1.43,0,0,1,69.27,131.66Z"/><path class="cls-6" d="M75.25,39a1.45,1.45,0,0,1-1.93-.41,20.84,20.84,0,0,0-7-6.57,23,23,0,0,0-7.82-2.58,30.51,30.51,0,0,0-9.25-.21A1.46,1.46,0,0,1,47.65,28l-.5-2.87a1.48,1.48,0,0,1,1.23-1.72,36.44,36.44,0,0,1,11.18.23,28.62,28.62,0,0,1,9.68,3.25,26.83,26.83,0,0,1,9,8.52,1.46,1.46,0,0,1-.5,2Z"/><path class="cls-6" d="M176.79,223.59c-15.33,0-29.27-5.52-38.31-15.2-12.3-13.18-13.08-30.79-12.46-40.11l13,.87c-.48,7.22,0,20.77,9,30.36,6.68,7.15,17.4,11.19,29.28,11.08,14-.13,27.55-6,36.21-15.58,15.78-17.55,13.07-43.72,2.5-59.44-7.47-11.11-23.23-23.45-43-21.66-14.78,1.33-24.87,9.87-29.57,14.84l-9.45-8.93c6-6.3,18.8-17.14,37.85-18.86,25.48-2.3,45.54,13.3,55,27.36A65.32,65.32,0,0,1,237.62,166a58.14,58.14,0,0,1-14.49,37.71c-11,12.29-28.15,19.73-45.75,19.89Z"/><path class="cls-6" d="M131.69,136l26,51.06-50.7.62Z"/></svg>