<svg id="Layer_1" data-name="Layer 1" xmlns="http://www.w3.org/2000/svg" width="302" height="191" viewBox="0 0 302 191"><defs><style>.cls-1{fill:#ffaea6;}.cls-2{fill:#666;}.cls-3{fill:#939393;}.cls-4{fill:gray;}.cls-5{fill:#fff;}</style></defs><rect class="cls-1" x="53.23" y="130.59" width="29.11" height="7" rx="3.5" transform="translate(-10.55 5.88) rotate(-4.61)"/><rect class="cls-1" x="59.09" y="134.69" width="25.52" height="7" rx="3.5" transform="translate(-10.87 6.22) rotate(-4.61)"/><rect class="cls-1" x="170.46" y="147.08" width="42.06" height="10.11" rx="3.5"/><rect class="cls-1" x="178.43" y="153.46" width="36.86" height="10.11" rx="3.5"/><rect class="cls-1" x="78.22" y="111.83" width="16" height="29.09" rx="8" transform="translate(74.74 -26.18) rotate(30)"/><rect class="cls-1" x="203.64" y="120.2" width="23.11" height="42.03" rx="8" transform="translate(63.37 -66.63) rotate(20.58)"/><rect class="cls-1" x="113.75" y="123.65" width="16" height="29.09" rx="8" transform="translate(85.41 -42.36) rotate(30)"/><path class="cls-2" d="M14.16,75.8c-2.66-4.31-7.61-5.81-12.25-7a1.5,1.5,0,1,0-.79,2.89c3.85,1,8.28,2.1,10.45,5.6,1,1.64,3.61.13,2.59-1.51Z"/><path class="cls-2" d="M22.6,70.9l-2.27-2.84a12.38,12.38,0,0,0-2.46-2.74,5.49,5.49,0,0,0-3.41-.54,3.34,3.34,0,0,1-2.31-.68,1.55,1.55,0,0,0-2.12,0,1.51,1.51,0,0,0,0,2.12,6.38,6.38,0,0,0,3.1,1.47,8,8,0,0,0,1.77.06c.28,0,.57,0,.86,0a.87.87,0,0,1,.4.07,1.15,1.15,0,0,1,.34.29,7.49,7.49,0,0,1,.51.61l1.14,1.42L20.47,73a1.53,1.53,0,0,0,2.13,0,1.56,1.56,0,0,0,0-2.13Z"/><path class="cls-2" d="M26.54,68.92c.46-2.66,0-5.21-.28-7.85C26,59,26,56.68,27.07,54.78a1.5,1.5,0,0,0-2.59-1.51,11.9,11.9,0,0,0-1.29,7.09c.21,2.56.9,5.19.46,7.76A1.54,1.54,0,0,0,24.7,70a1.52,1.52,0,0,0,1.84-1Z"/><path class="cls-3" d="M72,70.52c2-27.56,64.42-48,113-47,5.84.11,93.78,2.81,106,50,5.31,20.5-5.11,43.85-20,57-27.74,24.49-70,12.67-101,4C142.16,126.73,69.85,100.9,72,70.52Z"/><path class="cls-3" d="M152,117.52c19.59-14.07,21-60.36,0-80-26.32-24.64-78.1,1.78-104,15C38.7,57.27,5.94,74,8.68,86.39,10.51,94.68,26.88,95,64,102.52,128.46,115.52,139.34,126.61,152,117.52Z"/><path class="cls-3" d="M72,70.52c3.26,2.34,20.06-24.24,34-20,13.15,4,13.53,32.28,16,32,3.9-.45,7.9-71.27-8.78-75.31S67.17,67,72,70.52Z"/><path class="cls-3" d="M62.25,68.85C65.8,70.72,78.69,42,93.09,44.26c13.57,2.1,17.94,30.05,20.35,29.42,3.79-1-2.23-71.66-19.31-73.31S57,66.09,62.25,68.85Z"/><path class="cls-4" d="M103,10c-3.53,4.59-7.11,9.15-10.59,13.78-2.85,3.79-5.37,7.92-5.56,12.79-.06,1.45,2.19,1.44,2.25,0,.18-4.71,3-8.67,5.74-12.29,3.35-4.39,6.74-8.76,10.1-13.14.89-1.15-1.07-2.27-1.94-1.14Z"/><path class="cls-1" d="M96.15,35.87c1.09.87,7.33-8.1,12.1-6.42,4.5,1.59,4.2,11.41,5.06,11.35,1.36-.1,3.83-24.6-1.89-26.26S94.53,34.59,96.15,35.87Z"/><ellipse cx="62.5" cy="64.52" rx="10.5" ry="8"/><ellipse class="cls-5" cx="65.52" cy="61.18" rx="3.07" ry="2.34"/><path class="cls-2" d="M48.65,59.63l13.83-5.77a140.22,140.22,0,0,0,13.18-5.77c1.69-.92.18-3.51-1.52-2.59a136.19,136.19,0,0,1-12.92,5.66L47.86,56.74a1.54,1.54,0,0,0-1,1.85,1.51,1.51,0,0,0,1.84,1Z"/><ellipse cx="8.5" cy="85.52" rx="6.5" ry="6"/><path class="cls-2" d="M19.12,88.84A12.89,12.89,0,0,1,21,93.15c.08.38.16.75.22,1.13,0,.19,0,.22,0,.1l0,.32c0,.22,0,.44.05.66a14.54,14.54,0,0,1-.09,2.47,1.51,1.51,0,0,0,1.5,1.5,1.54,1.54,0,0,0,1.5-1.5,16,16,0,0,0-2.48-10.51,1.54,1.54,0,0,0-2.06-.53,1.51,1.51,0,0,0-.53,2Z"/><path class="cls-2" d="M25.8,88a56.64,56.64,0,0,1,.82,14.59,1.51,1.51,0,0,0,1.5,1.5,1.53,1.53,0,0,0,1.5-1.5,59.28,59.28,0,0,0-.93-15.39,1.5,1.5,0,1,0-2.89.8Z"/><path class="cls-2" d="M31.42,87a37.7,37.7,0,0,1,4.39,8.94,39.24,39.24,0,0,1,1.26,4.76c.26,1.34.91,3.52.34,4.84a1.55,1.55,0,0,0,.54,2,1.5,1.5,0,0,0,2-.54c.79-1.84.53-3.66.23-5.59a37.93,37.93,0,0,0-1.31-5.65A40.82,40.82,0,0,0,34,85.48c-1.06-1.6-3.66-.1-2.59,1.52Z"/><path class="cls-1" d="M145.35,190.11c-.87-3,20-12.57,37.61-18.21,25.14-8.06,62.36-14.07,65-14.49,9.67-1.54,23.22-3.45,31-13.64.88-1.14,6.16-7.78,4-12.13-2.47-4.94-11.85-1.62-14.93-6.12-5.35-7.83,13.13-32.27,19-30,2,.78,1.06,4.15,4.56,12.45,2.48,5.88,4.44,7.7,6.44,11.55,5,9.61,4.05,20,3.6,22.57-2.45,14.19-28.76,21.4-63.5,29.2C154.12,190.14,145.88,191.92,145.35,190.11Z"/><path class="cls-3" d="M111,136.52c1.85,3.12,8,3.06,15,3,3.66,0,5.58-.05,8-1,4.19-1.64,5.34-4.26,10-9,7-7.08,9.79-6.69,10-9,.82-8.83-39.57-22-43-16-1.38,2.43,4.72,5.48,5.12,13.53C116.58,127.54,108.55,132.37,111,136.52Z"/><path class="cls-3" d="M72.83,127.92c1.85,3.12,8,3.07,15,3,3.66,0,5.57,0,8-1,4.18-1.63,5.33-4.26,10-9,7-7.07,9.79-6.68,10-9,.82-8.83-39.57-22-43-16-1.39,2.44,4.72,5.49,5.11,13.54C78.41,118.94,70.37,123.78,72.83,127.92Z"/><rect class="cls-1" x="88.76" y="142.41" width="29.11" height="7" rx="3.5" transform="translate(-11.39 8.77) rotate(-4.61)"/><rect class="cls-1" x="94.62" y="146.51" width="25.52" height="7" rx="3.5" transform="translate(-11.71 9.11) rotate(-4.61)"/><path class="cls-3" d="M199.49,141.37c1.84,8.2,23.74,13.32,30.51,6.15,2.47-2.62.82-4.63,4-11a39.43,39.43,0,0,1,10.87-12.93c6.54-5.3,9.36-4.55,11.13-8.07,2.69-5.35-.88-13-4-17-11.76-15.13-44.11-13.43-49-3-3.56,7.59,9.47,15.56,6,29C206.52,134.13,198.31,136.07,199.49,141.37Z"/><path class="cls-4" d="M122.19,100.66c5.5-4.73,14.19-7,20.93-3.6,6.43,3.27,8,10.89,7.47,17.5-.17,1.93,2.84,1.92,3,0,.66-7.76-1.72-16.67-9.31-20.27-8-3.79-17.71-1.34-24.21,4.25-1.47,1.26.66,3.37,2.12,2.12Z"/><path class="cls-4" d="M78.4,106.48a51.05,51.05,0,0,1,33.85,7.33c1.64,1,3.15-1.57,1.51-2.59a54.27,54.27,0,0,0-36.16-7.64c-1.9.27-1.09,3.16.8,2.9Z"/><path class="cls-4" d="M193,95.86c.5-5.77,4.24-10.75,9-13.81a25.3,25.3,0,0,1,18.16-3.2,44.34,44.34,0,0,1,18.69,8.41,29,29,0,0,1,6.92,7.18,42.6,42.6,0,0,1,4.39,9.46c2.84,8.14,4.83,16.71,3.7,25.37-.11.81.76,1.49,1.5,1.5a1.54,1.54,0,0,0,1.5-1.5c1.08-8.26-.63-16.59-3.21-24.42a55.93,55.93,0,0,0-4.49-10.64,30.68,30.68,0,0,0-7.19-8.29c-10.88-8.87-27.52-14.58-40.57-7-6.19,3.59-10.8,9.73-11.42,17-.17,1.92,2.83,1.91,3,0Z"/></svg>