<svg id="Layer_1" data-name="Layer 1" xmlns="http://www.w3.org/2000/svg" width="100" height="100" viewBox="0 0 100 100"><defs><style>.cls-1{fill:#ffd12a;}.cls-2{fill:#b92900;}.cls-3{fill:#fff;}</style></defs><rect class="cls-1" width="100" height="100" rx="30"/><rect class="cls-2" x="43" y="15.51" width="14" height="70" rx="2" transform="translate(-15.94 23.99) rotate(-23.38)"/><rect class="cls-2" x="43" y="15.51" width="14" height="70" rx="2" transform="translate(76.52 -15.43) rotate(66.62)"/><rect class="cls-2" x="43" y="15.51" width="14" height="70" rx="2" transform="translate(22.13 -14.87) rotate(21.62)"/><rect class="cls-2" x="42.91" y="15.01" width="14" height="70" rx="2" transform="translate(-14.97 77.98) rotate(-68.38)"/><circle class="cls-2" cx="50.5" cy="50" r="26.5"/><circle class="cls-1" cx="50" cy="49.5" r="12.5"/><path class="cls-3" d="M95.49,29.5h-1A.49.49,0,0,1,94,29a24.2,24.2,0,0,0-2.88-11A25.17,25.17,0,0,0,79.56,7.4a28.84,28.84,0,0,0-13-2.91A.51.51,0,0,1,66,4l0-1a.5.5,0,0,1,.49-.52,30.85,30.85,0,0,1,14,3.11A27.15,27.15,0,0,1,92.88,17,26.25,26.25,0,0,1,96,29,.51.51,0,0,1,95.49,29.5Z"/></svg>