<svg id="Layer_1" data-name="Layer 1" xmlns="http://www.w3.org/2000/svg" xmlns:xlink="http://www.w3.org/1999/xlink" width="1920.02" height="1084.5" viewBox="0 0 1920.02 1084.5"><defs><style>.cls-1{filter:url(#AI_GaussianBlur_4);}.cls-2{fill:#d8fffd;}.cls-3{fill:none;stroke:#000;stroke-miterlimit:10;stroke-width:5px;}.cls-4{filter:url(#AI_BevelShadow_1);}.cls-5{fill:#deba7d;}</style><filter id="AI_GaussianBlur_4" name="AI_GaussianBlur_4"><feGaussianBlur stdDeviation="4"/></filter><filter id="AI_BevelShadow_1" x="-20%" y="-20%" width="140%" height="140%" name="AI_BevelShadow_1"><feGaussianBlur result="blur" stdDeviation="4" in="SourceAlpha"/><feOffset result="offsetBlur" dy="-8" in="blur"/><feSpecularLighting result="specOut" specularExponent="10" surfaceScale="5" in="blur"><fePointLight x="-5000" y="-10000" z="-20000"/></feSpecularLighting><feComposite result="specOut" operator="in" in="specOut" in2="SourceAlpha"/><feComposite result="litPaint" k2="1" k3="1" operator="arithmetic" in="SourceGraphic" in2="specOut"/><feMerge><feMergeNode in="offsetBlur"/><feMergeNode in="litPaint"/></feMerge></filter></defs><g class="cls-1"><rect class="cls-2" x="5.97" y="0.43" width="1917" height="1086"/><line class="cls-3" x1="147.97" y1="1.43" x2="147.97" y2="1086.43"/><line class="cls-3" x1="5.47" y1="152.93" x2="722.47" y2="152.93"/><line class="cls-3" x1="294.47" y1="1.43" x2="294.47" y2="1086.43"/><line class="cls-3" x1="438.47" y1="1.43" x2="438.47" y2="1086.43"/><line class="cls-3" x1="580.47" y1="1.43" x2="580.47" y2="1086.43"/><line class="cls-3" x1="4.97" y1="294.93" x2="721.97" y2="294.93"/><line class="cls-3" x1="5.97" y1="436.93" x2="722.97" y2="436.93"/><line class="cls-3" x1="5.15" y1="579.17" x2="722.15" y2="579.17"/><line class="cls-3" x1="4.65" y1="721.17" x2="721.65" y2="721.17"/><line class="cls-3" x1="5.65" y1="863.17" x2="722.65" y2="863.17"/><line class="cls-3" x1="3.15" y1="1009.17" x2="720.15" y2="1009.17"/><line class="cls-3" x1="721.62" y1="1.52" x2="721.62" y2="1086.52"/><line class="cls-3" x1="579.12" y1="153.02" x2="1296.12" y2="153.02"/><line class="cls-3" x1="868.12" y1="1.52" x2="868.12" y2="1086.52"/><line class="cls-3" x1="1012.12" y1="1.52" x2="1012.12" y2="1086.52"/><line class="cls-3" x1="1154.12" y1="1.52" x2="1154.12" y2="1086.52"/><line class="cls-3" x1="578.62" y1="295.02" x2="1295.62" y2="295.02"/><line class="cls-3" x1="579.62" y1="437.02" x2="1296.62" y2="437.02"/><line class="cls-3" x1="578.79" y1="579.27" x2="1295.79" y2="579.27"/><line class="cls-3" x1="578.29" y1="721.27" x2="1295.29" y2="721.27"/><line class="cls-3" x1="579.29" y1="863.27" x2="1296.29" y2="863.27"/><line class="cls-3" x1="576.79" y1="1009.27" x2="1293.79" y2="1009.27"/><line class="cls-3" x1="1306.62" y1="1.52" x2="1306.62" y2="1086.52"/><line class="cls-3" x1="1164.12" y1="153.02" x2="1881.12" y2="153.02"/><line class="cls-3" x1="1453.12" y1="1.52" x2="1453.12" y2="1086.52"/><line class="cls-3" x1="1597.12" y1="1.52" x2="1597.12" y2="1086.52"/><line class="cls-3" x1="1739.12" y1="1.52" x2="1739.12" y2="1086.52"/><line class="cls-3" x1="1163.62" y1="295.02" x2="1880.62" y2="295.02"/><line class="cls-3" x1="1164.62" y1="437.02" x2="1881.62" y2="437.02"/><line class="cls-3" x1="1163.79" y1="579.27" x2="1880.79" y2="579.27"/><line class="cls-3" x1="1163.29" y1="721.27" x2="1880.29" y2="721.27"/><line class="cls-3" x1="1164.29" y1="863.27" x2="1881.29" y2="863.27"/><line class="cls-3" x1="1161.79" y1="1009.27" x2="1878.79" y2="1009.27"/><line class="cls-3" x1="1302.73" y1="153.48" x2="1924.54" y2="153.48"/><line class="cls-3" x1="1878.04" y1="1.98" x2="1878.04" y2="1086.98"/><line class="cls-3" x1="1302.3" y1="295.48" x2="1924.11" y2="295.48"/><line class="cls-3" x1="1303.17" y1="437.48" x2="1924.97" y2="437.48"/><line class="cls-3" x1="1302.45" y1="579.73" x2="1924.26" y2="579.73"/><line class="cls-3" x1="1302.02" y1="721.73" x2="1923.82" y2="721.73"/><line class="cls-3" x1="1302.89" y1="863.73" x2="1924.69" y2="863.73"/><line class="cls-3" x1="1300.72" y1="1009.73" x2="1922.52" y2="1009.73"/><path d="M1453.9,436.51q-17.81-15-36.74-28.59l.53,2.05a65.91,65.91,0,0,0,4.8-10.46c.63-1.79,1.19-3.6,1.65-5.44a6.47,6.47,0,0,0-.42-5.17,27,27,0,0,0-3.77-4.23l-4.26-4.49-8.88-9.33-.67,2.51a13,13,0,0,0,10.3-11.3c.22-1.91-2.78-1.89-3,0a10,10,0,0,1-8.09,8.41,1.51,1.51,0,0,0-.66,2.51c5.21,5.48,10.53,10.87,15.65,16.44a3.72,3.72,0,0,1,1.15,2,6.38,6.38,0,0,1-.36,2.33q-.69,2.64-1.61,5.21a60.69,60.69,0,0,1-4.42,9.54,1.55,1.55,0,0,0,.54,2.05q18.61,13.33,36.13,28.12c1.47,1.24,3.6-.87,2.13-2.12Z"/><path d="M1422.22,395.9l-20.07.24c-1.55,0-2.91.05-4.17-1a40.39,40.39,0,0,1-3.23-3.31l-7.14-7.46c-1.34-1.4-3.46.72-2.12,2.12l7.48,7.82a30.17,30.17,0,0,0,3.52,3.45,7.19,7.19,0,0,0,4.3,1.36c3.54.1,7.11-.07,10.66-.11l10.77-.13a1.5,1.5,0,0,0,0-3Z"/><path d="M1393.72,393.61c-1,1.84-1.89,3.72-2.7,5.64-.42,1-.82,2-1.19,2.95-.18.47-.35.95-.52,1.44a4.83,4.83,0,0,1-.46,1.19l.54-.54c.13-.1.41,0,.09-.05a3.92,3.92,0,0,0-.59-.05l-1.31-.13-2.48-.25-5-.49a1.51,1.51,0,0,0-1.5,1.5,1.53,1.53,0,0,0,1.5,1.5l6.14.6c1.06.11,2.14.27,3.21.32a2.19,2.19,0,0,0,2.23-1.39c.73-1.76,1.26-3.59,2-5.34s1.66-3.63,2.6-5.39-1.68-3.22-2.59-1.51Z"/><path d="M581.93,157.41l3.71,5.06L587.5,165a13.2,13.2,0,0,0,1.64,2.14c1.43,1.28,3.52.32,5.16.05a41.55,41.55,0,0,1,6-.54,80.17,80.17,0,0,1,12.19.78c4,.51,8,1.12,11.9.12,1.87-.48,1.08-3.37-.8-2.9-3.5.89-7.1.3-10.63-.16a87.86,87.86,0,0,0-11.22-.86,50.16,50.16,0,0,0-5.48.28c-.92.1-1.85.23-2.76.38l-1.17.22a5.61,5.61,0,0,1-1.21.3c-.42-.1-1.16-1.49-1.46-1.91L588,160.57l-3.43-4.67c-1.13-1.54-3.73-.05-2.59,1.51Z"/><path d="M591.38,166c.71,3.66,1.3,7.34,1.71,11q.15,1.32.27,2.64c.09.9.21,1.11-.5,1.66-1.55,1.21-3.15,2.37-4.73,3.56a1.53,1.53,0,0,0-.53,2l11.65,17.49c1.06,1.6,3.66.1,2.59-1.51l-11.65-17.49-.54,2.05c1.81-1.36,3.66-2.67,5.43-4.09s1.36-3,1.17-4.92q-.69-6.69-2-13.29c-.37-1.89-3.26-1.09-2.89.8Z"/><path d="M595.05,182.73a81.21,81.21,0,0,0,15.62,7.83,1.53,1.53,0,0,0,1.69-.69,28.21,28.21,0,0,1,6.92-6.91h-1.52l10.55,7.91c1.54,1.16,3-1.44,1.51-2.59l-10.54-7.91a1.48,1.48,0,0,0-1.52,0,32.39,32.39,0,0,0-8,8l1.7-.68a77.82,77.82,0,0,1-14.91-7.53c-1.63-1-3.13,1.54-1.51,2.59Z"/><path d="M443.77,580.55a221.27,221.27,0,0,0,19.88-18.85,1.53,1.53,0,0,0-.66-2.51,12.65,12.65,0,0,1-7.21-8.51l-1,1.84a14.82,14.82,0,0,0,6-2.87l6.13-4.27,12.65-8.82c1.57-1.1.08-3.7-1.51-2.59l-12.25,8.54-6.12,4.27c-1.77,1.23-3.51,2.49-5.68,2.85a1.5,1.5,0,0,0-1,1.84,15.81,15.81,0,0,0,9.3,10.61l-.66-2.5a221.27,221.27,0,0,1-19.88,18.85c-1.48,1.24.65,3.36,2.12,2.12Z"/><path d="M462.78,562a23.69,23.69,0,0,0,15.64-10l-2.35.3a60.23,60.23,0,0,1,10.81,17.27,1.52,1.52,0,0,0,2.2.9,44.92,44.92,0,0,1,20.62-7.07c1.91-.16,1.93-3.16,0-3a48,48,0,0,0-22.13,7.48l2.2.9a64.41,64.41,0,0,0-11.58-18.6,1.53,1.53,0,0,0-2.36.3A20.76,20.76,0,0,1,462,559.11c-1.9.31-1.09,3.2.8,2.9Z"/><path d="M468.07,541.09a162.8,162.8,0,0,1-11.73-12.76,1.5,1.5,0,0,0-2.12,0,1.54,1.54,0,0,0,0,2.12A162.8,162.8,0,0,0,466,543.21c1.38,1.35,3.51-.77,2.12-2.12Z"/><path d="M1875.85.42Q1848.34,9.75,1820.48,18q-7.87,2.31-15.78,4.55a1.5,1.5,0,0,0,.8,2.89q27.95-7.89,55.57-16.91,7.8-2.55,15.58-5.19c1.82-.62,1-3.51-.8-2.89Z"/><path d="M1873.59,1.64l-51.26,35.59c-1.57,1.09-.07,3.7,1.52,2.59L1875.1,4.23c1.58-1.1.08-3.7-1.51-2.59Z"/><path d="M1874.41,3.23q-16.61,24.33-35.07,47.31c-1.2,1.49.91,3.62,2.12,2.12Q1860.17,29.4,1877,4.74c1.09-1.59-1.5-3.1-2.59-1.51Z"/><path d="M1874.75,3.74a284.64,284.64,0,0,1-14,54.59c-.67,1.82,2.23,2.6,2.89.8a283.18,283.18,0,0,0,14-54.59c.29-1.89-2.6-2.7-2.89-.8Z"/><path d="M1803.52,3.43A18.26,18.26,0,0,1,1810.71,20a1.52,1.52,0,0,0,1.5,1.5A13.42,13.42,0,0,1,1825,35a1.5,1.5,0,0,0,1.9,1.44,12.26,12.26,0,0,1,9.83.63,13.53,13.53,0,0,1,4,3.11,13.6,13.6,0,0,1,2.37,4.48,3.51,3.51,0,0,0,1.81,2.16,6.37,6.37,0,0,0,3,.2,13.42,13.42,0,0,1,5.53,1,13.86,13.86,0,0,1,7.76,7.83c.67,1.79,3.57,1,2.89-.8a17.05,17.05,0,0,0-14.93-11c-.8,0-1.57,0-2.36.07-.54,0-.66.07-.9-.41a10.53,10.53,0,0,1-.38-1.12,14.41,14.41,0,0,0-2.3-4,16.07,16.07,0,0,0-7.22-5,14.77,14.77,0,0,0-10,0L1828,35c.27-8.61-7.17-16.32-15.75-16.48l1.5,1.5A21.21,21.21,0,0,0,1805,.84c-1.56-1.13-3.06,1.47-1.51,2.59Z"/><path d="M1825.82,3.6c6,1.05,7.55,7.7,8.67,12.71a1.55,1.55,0,0,0,1.85,1.05c1.72-.28,3.28.87,4.28,2.16a8.06,8.06,0,0,1,1.23,2.2,11.38,11.38,0,0,0,.86,2.28c1.1,1.69,3.11,1.24,4.78,1.74a7.42,7.42,0,0,1,4,2.92c.94,1.41,1.08,3.33,2.7,4.2s3.48.07,5.18.39a8.3,8.3,0,0,1,6.56,6.57c.36,1.89,3.25,1.09,2.9-.8a11.23,11.23,0,0,0-7-8.17,13.58,13.58,0,0,0-5.52-.58c-1.13,0-1.13-1-1.52-1.85a10.35,10.35,0,0,0-6.44-5.57,9.55,9.55,0,0,0-1.41-.3,7.67,7.67,0,0,1-1.37-.13c-.47-.18-.38-.3-.53-.81s-.31-.93-.5-1.38c-1.54-3.6-4.86-6.42-8.93-5.77l1.85,1c-1.35-6-3.72-13.56-10.77-14.8-1.89-.34-2.7,2.56-.8,2.89Z"/><path d="M1868.17,41.26c.75-.27,1.5-.52,2.26-.73.39-.11.78-.21,1.17-.29l.58-.11c.19,0,.2,0,0,0l.29,0a8.85,8.85,0,0,1,1.15-.05c.19,0,.38,0,.56,0s.19,0,0,0l.27,0a3.55,3.55,0,0,1,1.79.8,1.52,1.52,0,0,0,2.06-.54,1.54,1.54,0,0,0-.54-2.05c-3.08-2.24-7.18-1.14-10.45,0a1.53,1.53,0,0,0-1,1.85,1.51,1.51,0,0,0,1.84,1Z"/><path d="M1864.31,55.34a7.05,7.05,0,0,1,2.57-.68,6.81,6.81,0,0,1,2.9.39,5.47,5.47,0,0,1,1.18.51q.38.19.72.42l.31.22c.39.28-.1-.09.12.09a6.22,6.22,0,0,1,1.88,2.33,1.5,1.5,0,0,0,2.59-1.52,10.48,10.48,0,0,0-13.79-4.35,1.5,1.5,0,1,0,1.52,2.59Z"/><path d="M1846,2.71a5.31,5.31,0,0,1,1.15,3.8c0,1.46-.44,3.06.74,4.22a9.52,9.52,0,0,0,1.92,1.2c.72.44,1.43.9,2.13,1.39,1.46,1,2.87,2.1,4.29,3.17a35.93,35.93,0,0,1,3.73,3.13c1.08,1.09,1.81,2.36,3.4,2.73a7.38,7.38,0,0,1,3.6,1.38,5.9,5.9,0,0,1,2,3.57c.18,1.06,1.41,1.24,2.2.9,1.52-.66,3.58-1.54,4.85,0s3.36-.65,2.12-2.12c-2.25-2.67-5.76-1.62-8.48-.44l2.2.9a8.65,8.65,0,0,0-5.19-6.43,8.84,8.84,0,0,0-2.09-.56c-.89-.16-1.16-.57-1.73-1.23a26.81,26.81,0,0,0-3.85-3.45c-1.45-1.12-2.91-2.23-4.39-3.31-.75-.54-1.5-1.08-2.28-1.58-.39-.25-.78-.49-1.18-.72s-1-.39-1.12-.64a12.34,12.34,0,0,1,.15-1.9,14,14,0,0,0-.14-2.05,7.3,7.3,0,0,0-1.89-4c-1.33-1.41-3.45.72-2.12,2.12Z"/><path d="M1859.07,1.78c-.49,4.19,1.56,7.87,4.81,10.38,3.59,2.76,7.42,5.27,11.22,7.74,1.62,1.05,3.12-1.54,1.51-2.59-3.46-2.26-6.89-4.58-10.23-7a11,11,0,0,1-3.53-3.75,8.3,8.3,0,0,1-.78-4.78,1.51,1.51,0,0,0-1.5-1.5,1.53,1.53,0,0,0-1.5,1.5Z"/><ellipse cx="1826.47" cy="53.43" rx="5.5" ry="4" transform="translate(424.32 1225.1) rotate(-41.56)"/><ellipse cx="1823.02" cy="57.12" rx="2.68" ry="2.91" transform="translate(1656.61 1873.43) rotate(-86.56)"/><path d="M1825.82,57.21a5.47,5.47,0,0,1,.57.51l.22.24.14.16c.12.14-.19-.25-.08-.1s.29.42.41.64l.18.33s0,.1.07.16c.11.23-.1-.26,0-.09s.17.45.23.68.06.24.08.37a.94.94,0,0,1,0,.16c0,.27,0,0,0-.1a1.54,1.54,0,0,1,0,.37c0,.12,0,.23,0,.34s0,.25,0,.38-.08.61,0,.1a1.67,1.67,0,0,0,.15,1.16,1.52,1.52,0,0,0,.9.69,1.49,1.49,0,0,0,1.15-.15,1.42,1.42,0,0,0,.69-.9,7.52,7.52,0,0,0-2.61-7.07,1.61,1.61,0,0,0-1.06-.44,1.53,1.53,0,0,0-1.06.44,1.52,1.52,0,0,0,0,2.12Z"/><path d="M1829.48,55.57l.07,0-.4.06h.28l-.4-.05a1.91,1.91,0,0,1,.41.11l-.36-.15a6.15,6.15,0,0,1,1.3.84l-.3-.23a7,7,0,0,1,1.28,1.22l-.23-.3a3.93,3.93,0,0,1,.55.93l-.15-.36a3.21,3.21,0,0,1,.21.75l-.06-.39a3,3,0,0,1,0,.42,1.5,1.5,0,1,0,3,0,5.31,5.31,0,0,0-1.86-3.85,15.14,15.14,0,0,0-1.61-1.26,4.3,4.3,0,0,0-1.07-.54,2.9,2.9,0,0,0-1.49-.07,1.59,1.59,0,0,0-.9.69,1.61,1.61,0,0,0-.15,1.16,1.5,1.5,0,0,0,.69.89,1.73,1.73,0,0,0,1.16.16Z"/><path d="M1830.68,53a6.61,6.61,0,0,1,.89,0l.41,0c.13,0,.27.1,0,0l.21,0c.29,0,.57.12.86.2l.39.13.2.07c.1,0,.28.16,0,0,.23.13.47.23.69.37s-.16-.15,0,0l.14.13a1.66,1.66,0,0,1,.13.14c.14.12-.15-.24-.06-.08a6.75,6.75,0,0,1,.39.69c.1.21,0-.07,0-.09a1,1,0,0,0,.09.22l.15.41a1.5,1.5,0,0,0,2.89-.8,8,8,0,0,0-.89-1.95,4.59,4.59,0,0,0-1.85-1.56,9.7,9.7,0,0,0-4.5-.89,1.5,1.5,0,0,0,0,3Z"/><path d="M1829.27,49.15c.25-2.94-1.51-7.09-5.08-6.42a1.51,1.51,0,0,0-1,1.85,1.54,1.54,0,0,0,1.84,1l.16,0-.4,0a2.34,2.34,0,0,1,.46,0l-.4,0a2.31,2.31,0,0,1,.53.15l-.36-.15.28.14.1.07c.09.06,0,0-.15-.12a2,2,0,0,0,.22.19,1.9,1.9,0,0,0,.19.21c-.15-.19-.18-.23-.09-.11l0,.07a2.61,2.61,0,0,1,.17.28,5,5,0,0,1,.26.52l-.16-.36a6.5,6.5,0,0,1,.45,1.62l0-.4a6.84,6.84,0,0,1,0,1.43,1.52,1.52,0,0,0,.44,1.06,1.56,1.56,0,0,0,1.06.44,1.54,1.54,0,0,0,1.5-1.5Z"/><path d="M1825.23,49a12.44,12.44,0,0,0-3.08-1.77,4.13,4.13,0,0,0-2.18-.07l-1.75.32a1.52,1.52,0,0,0-1,1.85,1.54,1.54,0,0,0,1.85,1l1.54-.28.21,0h-.07c.06,0,.24,0,.32,0s.14,0-.08,0l.15,0a1.08,1.08,0,0,1,.36.11c-.2-.08-.22-.09-.07,0l.1.05.37.2.64.37a12.62,12.62,0,0,1,1.23.83,1.51,1.51,0,0,0,1.16.15,1.57,1.57,0,0,0,.89-.69,1.47,1.47,0,0,0,.15-1.16,1.69,1.69,0,0,0-.69-.89Z"/><path d="M1821.8,51.77c.43-.06-.06,0-.15,0l-.43,0-.88,0c-.51,0-1-.05-1.54,0a5.42,5.42,0,0,0-3.38,1.25,1.52,1.52,0,0,0,0,2.12,1.54,1.54,0,0,0,2.12,0l-.09.07.14-.1.27-.15c.33-.16-.27.08,0,0l.34-.11.27-.05.18,0-.13,0,.63,0c.5,0,1,0,1.51,0a10.27,10.27,0,0,0,1.92-.12,1.5,1.5,0,0,0,1.05-1.85,1.55,1.55,0,0,0-.69-.9,1.75,1.75,0,0,0-1.15-.15Z"/></g><path d="M165.05,741.07a18.15,18.15,0,0,1,9.49,2.29,15.26,15.26,0,0,1,5.81,6.12,21.45,21.45,0,0,1,2.28,8.79,35.49,35.49,0,0,1-1,10.26,46.18,46.18,0,0,1-4,10.58,44,44,0,0,1-6.86,9.71,43,43,0,0,1-9.52,7.66,36.66,36.66,0,0,1-12,4.5q-2,6.82-4.08,14.31t-3.34,12.55a56.5,56.5,0,0,0-1.4,6.33,16.67,16.67,0,0,0,0,2.32c.05.7.08,1.43.11,2.18a17,17,0,0,1-.25,3,2.81,2.81,0,0,1-1,1.79,4.08,4.08,0,0,1-1.72.71,5.51,5.51,0,0,1-1.9,0,18.25,18.25,0,0,1-2.07-.56,14.38,14.38,0,0,1-2.57-1.2,2.64,2.64,0,0,1-1.51-2.07,8.88,8.88,0,0,1,.28-2.85q.39-1.59,1.3-5.13t2.18-8.23q1.26-4.68,2.85-10.37t3.41-12.17q-.84-.35-1.41-.63a4.2,4.2,0,0,1-.88-.56,2,2,0,0,1-.49-.7,1.4,1.4,0,0,1,0-.95,2.8,2.8,0,0,1,.56-1.06,2.7,2.7,0,0,1,1.37-.81c.63-.18,1.09-.3,1.37-.35l.92-.14q2.59-8.79,5.44-18.39t4.54-14.9q1.68-5.31,2-6.15a4.09,4.09,0,0,1,1-1.45,3.35,3.35,0,0,1,1.51-.8,3,3,0,0,1,2.08.38,2.4,2.4,0,0,1,1.41,1.55q.21.95-1.41,5.38.91.7,1.26,1a2.82,2.82,0,0,1,.64.88,3.65,3.65,0,0,1,.31,1.47,6.26,6.26,0,0,1-.35,2.15l-2.49,7.94q-2.11,6.72-3.52,11.5t-1.44,5a.86.86,0,0,0,0,.39.29.29,0,0,0,.21.24.72.72,0,0,0,.53-.07,36,36,0,0,0,10.19-7.91,43,43,0,0,0,6.75-10,39.73,39.73,0,0,0,3.45-10.48,29.44,29.44,0,0,0,.28-9.42,14.29,14.29,0,0,0-2.71-6.82,6.66,6.66,0,0,0-5.52-2.64,18.5,18.5,0,0,0-6.15,1,24.46,24.46,0,0,0-5.38,2.64,28.75,28.75,0,0,0-4.53,3.69,42.35,42.35,0,0,0-3.7,4.18c-1.08,1.41-2,2.76-2.84,4s-1.42,2.27-1.8,3a3.41,3.41,0,0,1-1.09,1.34,2.38,2.38,0,0,1-1.12.35,3.72,3.72,0,0,1-1.16-.11,5.78,5.78,0,0,1-1.2-.45,8.3,8.3,0,0,1-1.75-1.41c-.75-.73-1.39-1.38-1.9-2a2.32,2.32,0,0,1-.74-1.62,4.57,4.57,0,0,1,.32-1.47,13.83,13.83,0,0,1,1.72-2.67,32.85,32.85,0,0,1,4.74-4.79,42.29,42.29,0,0,1,7.42-5.06,41.1,41.1,0,0,1,8.93-3.51A38.7,38.7,0,0,1,165.05,741.07Z"/><path d="M193,783.54a7.31,7.31,0,0,1,4.6,1.45,10.6,10.6,0,0,1,3,3.65,18,18,0,0,1,1.62,4.92,28.08,28.08,0,0,1,.49,4.82q0,2.11-.42,6a86.69,86.69,0,0,1-1.48,8.79,88.68,88.68,0,0,1-2.85,10.13,44.57,44.57,0,0,1-4.53,9.56,25.5,25.5,0,0,1-6.58,7.1,14.76,14.76,0,0,1-8.89,2.78,9.4,9.4,0,0,1-6.89-2.5,13.88,13.88,0,0,1-3.59-6.54,29.55,29.55,0,0,1-.77-9.1,53.45,53.45,0,0,1,1.58-10.2,61.13,61.13,0,0,1,3.41-9.84,40.37,40.37,0,0,1,4.71-8.09,6.87,6.87,0,0,1-1-.6,1.72,1.72,0,0,1-.6-1,2.22,2.22,0,0,1,.14-1.44,5.43,5.43,0,0,1,.63-1.2c.22-.28.57-.68,1.06-1.19a22.38,22.38,0,0,1,2.67-2.22,31.83,31.83,0,0,1,4.18-2.63,25.81,25.81,0,0,1,4.68-1.94A16.56,16.56,0,0,1,193,783.54Zm-14.35,54.71c.52,0,1.24-.57,2.18-1.69a29.66,29.66,0,0,0,3-4.64,72.69,72.69,0,0,0,3.27-7,87.62,87.62,0,0,0,5.16-18.49,52.89,52.89,0,0,0,.85-8.47c0-2.25,0-3.9,0-5s-.07-2-.14-2.81a9,9,0,0,0-.35-2c-.17-.49-.39-.74-.67-.74a2.69,2.69,0,0,0-1.55.63,10.87,10.87,0,0,0-1.75,1.73c-.61.72-1.23,1.54-1.87,2.46s-1.25,1.86-1.86,2.85a13.64,13.64,0,0,1,1.27,1c.37.33.49,1,.35,2.11a9.17,9.17,0,0,1-2.18,4.08,47.28,47.28,0,0,0-3.41,4.81,34.18,34.18,0,0,0-2.64,5.45,43.27,43.27,0,0,0-2,6.89,36.16,36.16,0,0,0-.81,6.58c0,1.85,0,3.36.11,4.53a27.82,27.82,0,0,0,.49,3.45,13.45,13.45,0,0,0,.95,3C177.44,837.82,178,838.25,178.62,838.25Z"/><path d="M212,835.5a2.55,2.55,0,0,0,0,.88,5.11,5.11,0,0,0,.21.67,5.17,5.17,0,0,1,.25.81,8.18,8.18,0,0,1,.07,1.69,2.53,2.53,0,0,1-1,2,3,3,0,0,1-2.22.63,28.56,28.56,0,0,1-2.84-.39,15.64,15.64,0,0,1-2.36-.56,2.32,2.32,0,0,1-1.16-.77,2.7,2.7,0,0,1-.46-1.09,5.77,5.77,0,0,1-.1-1c0-.24.1-1.16.32-2.78s.59-4,1.16-7,1.16-6.09,1.79-9.14,1.29-6,2-9,1.32-5.73,1.93-8.33,1.17-5,1.69-7.07.88-3.55,1.09-4.32a17.38,17.38,0,0,1,.53-1.72,4.1,4.1,0,0,1,.59-1.06,3.85,3.85,0,0,1,.95-.84,1.87,1.87,0,0,1,1.34-.21,12.75,12.75,0,0,1,2.14.67,13.31,13.31,0,0,1,2.39,1.16,2.51,2.51,0,0,1,1.23,1.44,4.3,4.3,0,0,1-.14,2.14q-3.93,16.32-6.15,27T212,835.5Zm15-71.64a7.7,7.7,0,0,1,.88,2.32,12.47,12.47,0,0,1,.28,3,16.05,16.05,0,0,1-.42,3.2,9.21,9.21,0,0,1-1.27,3,6.87,6.87,0,0,1-2.25,2.14,6.29,6.29,0,0,1-3.27.81,8.27,8.27,0,0,1-3.16-.53,6,6,0,0,1-3.31-3.2,10.57,10.57,0,0,1-.56-1.54,4.13,4.13,0,0,1-.14-1.06,4.66,4.66,0,0,1,.1-1,3.32,3.32,0,0,1,.36-1,1.6,1.6,0,0,1,.73-.7,4.44,4.44,0,0,1,1.27-.39c.52-.09.81-.21.88-.35a.92.92,0,0,0,.1-.42,6.06,6.06,0,0,1,1.06-4.19,5.5,5.5,0,0,1,2.85-2,5.85,5.85,0,0,1,3.34.07A4.52,4.52,0,0,1,227,763.86Z"/><path d="M253,835q.08,1.41.57,1.62a5.1,5.1,0,0,0,1,.32,2.05,2.05,0,0,1,.88.42c.25.21.36.82.32,1.83a3.73,3.73,0,0,1-1,2.49,5.6,5.6,0,0,1-2.11,1.41,8.17,8.17,0,0,1-2,.49l-1.54.11a12.69,12.69,0,0,1-1.76-.07,4,4,0,0,1-2.32-1.41,8.17,8.17,0,0,1-1.87-3,10.88,10.88,0,0,1-.66-3.2c-.05-1,0-2.69.07-5s.42-5.38,1-9.32,1.17-7.64,1.83-11.11,1.29-6.64,1.9-9.52,1.09-5.37,1.44-7.46a22.91,22.91,0,0,0,.42-4.85c-.07-1.15-.48-1.72-1.23-1.72a4.73,4.73,0,0,0-3.34,1.58,20.4,20.4,0,0,0-3.06,4.15,45,45,0,0,0-2.74,5.73c-.84,2.11-1.62,4.23-2.32,6.36s-1.31,4.16-1.83,6.09-.9,3.41-1.16,4.46-.46,1.89-.6,2.5-.31,1.49-.52,2.63-.44,2.46-.67,3.94-.48,3-.74,4.61-.49,3.07-.7,4.43-.39,2.54-.53,3.55-.25,1.71-.32,2.11a1.37,1.37,0,0,1-.52.91,3.22,3.22,0,0,1-1,.49,3.44,3.44,0,0,1-1.34.11l-1.69-.18c-.63-.07-1.27-.16-1.93-.28s-1-.39-1.13-.81a4.52,4.52,0,0,1-.1-1.19,10.63,10.63,0,0,1,.24-1.55c.15-.66.38-1.48.71-2.46a2,2,0,0,1-1.83-2.74q2-9.15,4.08-17.69l3.3-13.81q1.27-5.28,1.48-7a27.71,27.71,0,0,0,.18-3.7,15.71,15.71,0,0,1,.31-3.58,5.53,5.53,0,0,1,1-2.43,3.06,3.06,0,0,1,1.37-1,4.12,4.12,0,0,1,1.55-.14,14.71,14.71,0,0,1,2.74.77,9.88,9.88,0,0,1,2.36,1.23,3.38,3.38,0,0,1,1.16,1.44,4,4,0,0,1-.07,2.18,7.29,7.29,0,0,0-.32,1.58c0,.12.07.16.14.11a10.67,10.67,0,0,0,.91-1.3,15.09,15.09,0,0,1,1.94-2.36,11,11,0,0,1,2.14-1.72,6.29,6.29,0,0,1,1.87-.77,7.14,7.14,0,0,1,1.47-.18q4.78,0,7,1.83a8.12,8.12,0,0,1,2.71,5.17,26.45,26.45,0,0,1-.21,8q-.74,4.71-1.83,10.51t-2.07,12.55A89,89,0,0,0,253,835Z"/><path d="M296.54,766.39a3.87,3.87,0,0,1,1.54.21,2.63,2.63,0,0,1,.74.53c.21.21.31.79.28,1.75a8,8,0,0,1-.59,2.82A6.63,6.63,0,0,1,297,774a4.65,4.65,0,0,1-3.34.8c-1.62,0-3.28,0-5,0s-3.39.18-5,.32q-2.12,7.3-3.94,13.95t-3.09,11.64c-.85,3.33-1.57,6.43-2.18,9.32s-1.19,5.74-1.72,8.57-1,5.54-1.45,8.09-.73,4.52-.94,5.91a13,13,0,0,0-.25,2.77,3.46,3.46,0,0,0,.28,1.16,4.41,4.41,0,0,0,.46.81,10.49,10.49,0,0,1,.56.95,1.43,1.43,0,0,1,.07,1.23,2,2,0,0,1-.91,1,4.51,4.51,0,0,1-1.66.53,22.34,22.34,0,0,1-2.25.18,12.92,12.92,0,0,1-2.74-.25,14.22,14.22,0,0,1-2.14-.53,5.33,5.33,0,0,1-1.27-.67,2.86,2.86,0,0,1-.95-1.51,7.24,7.24,0,0,1-.28-2.56,22.85,22.85,0,0,1,.39-3.13c.21-1.1.43-2.15.67-3.13q3.59-16,7-28.94t6.4-22.95q.27-.92-.18-1a3.08,3.08,0,0,0-1.2,0l-1.51.32c-.51.12-1.17.26-2,.42a2.78,2.78,0,0,1-2.07-.28,1.83,1.83,0,0,1-.84-1.79,2.61,2.61,0,0,1,.56-1.8,6.17,6.17,0,0,1,1.83-1.09c.86-.37,2-.82,3.48-1.33s2.88-1,4.29-1.34q2.46-7.87,4.25-13.08c1.2-3.46,1.94-5.62,2.25-6.46s.52-1.39.63-1.62a2.17,2.17,0,0,1,.53-.67,2.21,2.21,0,0,1,.84-.46,2.33,2.33,0,0,1,1.52.42,12.82,12.82,0,0,1,2.18,1.62,6.26,6.26,0,0,1,1.54,1.94,4.27,4.27,0,0,1,.42,1.47,10.51,10.51,0,0,1-.63,2.78c-.45,1.45-1,3.25-1.69,5.38s-1.34,4.28-2,6.43c2.25-.37,4.26-.63,6.05-.77S295.32,766.43,296.54,766.39Z"/><path d="M316.15,784.39a26.38,26.38,0,0,1-.07,4.32,15.51,15.51,0,0,1-.8,3.94,10.89,10.89,0,0,1-.95,2.07,3.27,3.27,0,0,1-.92.85,3.19,3.19,0,0,1-1.65.35,1.87,1.87,0,0,1-1.48-.46,3.45,3.45,0,0,1-.59-1,3.73,3.73,0,0,0-.53-1c-.21-.25-.78-.35-1.69-.28a17.73,17.73,0,0,0-3.2.6,19.67,19.67,0,0,0-3.66,1.41,20.43,20.43,0,0,0-3.62,2.35,12.49,12.49,0,0,0-2.67,2.81c-.59.92-.83,1.47-.74,1.66a1.66,1.66,0,0,0,.64.56,6.09,6.09,0,0,0,2,.46,18,18,0,0,1,3.9,1,10.14,10.14,0,0,1,4.22,3,14.17,14.17,0,0,1,2.77,6,21.23,21.23,0,0,1,.21,8.3,34.14,34.14,0,0,1-2.07,7.81,23.65,23.65,0,0,1-3.76,6.15,20,20,0,0,1-5.8,4.71,16.45,16.45,0,0,1-8,1.86q-4,0-5.94-2a9.48,9.48,0,0,1-2.46-5.06,20.41,20.41,0,0,1-.07-6.4c.3-2.25.55-3.82.73-4.71a3.32,3.32,0,0,1,.85-1.83,2.83,2.83,0,0,1,1.16-.63,3.94,3.94,0,0,1,1.3-.07,13.36,13.36,0,0,1,.46-1.69,6.05,6.05,0,0,1,.52-1.16c.19-.3.64-.41,1.37-.31a18.07,18.07,0,0,1,2,.35,9.79,9.79,0,0,1,1.55.49,1.46,1.46,0,0,1,.81.63,2.21,2.21,0,0,1,.14.78,4.49,4.49,0,0,1-.07.77c-.05.24-.18.67-.39,1.3s-.57,1.9-1.09,3.8a46.18,46.18,0,0,0-1.16,5.52,15.84,15.84,0,0,0-.1,4.57c.18,1.26.79,1.9,1.82,1.9a3.61,3.61,0,0,0,2.36-.92,9,9,0,0,0,2-2.42,22.16,22.16,0,0,0,1.58-3.45q.7-1.94,1.23-3.87c.35-1.28.66-2.55.91-3.79s.46-2.39.6-3.45a19.74,19.74,0,0,0,0-3.9,12.19,12.19,0,0,0-1.3-4.54,11.25,11.25,0,0,0-3.48-3.93,15.28,15.28,0,0,0-6.44-2.43,2.69,2.69,0,0,1-1.61-.95,3,3,0,0,1-.6-1.4,4.59,4.59,0,0,1,0-1.48,15.53,15.53,0,0,1,.64-2.08,28,28,0,0,1,2.25-4.25,22.88,22.88,0,0,1,4.92-5.59,31.21,31.21,0,0,1,7.94-4.71,35.85,35.85,0,0,1,10.83-2.6c.94-.05,1.63-.06,2.08,0a5.76,5.76,0,0,1,1.33.25,3.25,3.25,0,0,1,1.16.63A1.67,1.67,0,0,1,316.15,784.39Z"/><path d="M207.46,551.44a14.84,14.84,0,0,1-.7,4.39,5.69,5.69,0,0,1-1.09,2.22,2.54,2.54,0,0,1-.88.45,1.86,1.86,0,0,1-.77,0,8.07,8.07,0,0,1-1.27-.46,27.11,27.11,0,0,0-3.37-1,30.45,30.45,0,0,0-5.84-.81,42,42,0,0,0-7.66.42,35.63,35.63,0,0,0-7.1,1.62,28.87,28.87,0,0,1-3.63,1.16,2.13,2.13,0,0,1-2.56-1.51,6.52,6.52,0,0,1-.21-3q.21-2,1-8.34t3.17-17.26q2.39-10.94,6.92-26.61t8.47-26.26q3.95-10.59,4.29-11.29a10.79,10.79,0,0,1,.95-1.51,7.71,7.71,0,0,1,1.51-1.51,9.32,9.32,0,0,1,2.22-1.23,11.91,11.91,0,0,1,2.74-.74,6,6,0,0,1,2.46.07,2,2,0,0,1,1.41,1.2c.25.61-.05,1.82-.92,3.65s-2.34,5.34-4.43,10.51-4.26,11.41-6.54,18.67-4.46,15.47-6.57,24.61-3.54,16.67-4.29,22.57-1.09,9-1,9.25.29.37.67.35a7.43,7.43,0,0,0,1.69-.39l3.13-.95a49.08,49.08,0,0,1,4.85-1.12,52.51,52.51,0,0,1,5.8-.74,42.35,42.35,0,0,1,4.6-.14,10.94,10.94,0,0,1,2.08.21c.28.09.5.43.67,1A10,10,0,0,1,207.46,551.44Z"/><path d="M220,551.22a2.55,2.55,0,0,0,0,.88,3.21,3.21,0,0,0,.21.67c.09.24.17.51.25.81a8.18,8.18,0,0,1,.07,1.69,2.57,2.57,0,0,1-.95,2,3,3,0,0,1-2.22.63,28.34,28.34,0,0,1-2.85-.39,15.46,15.46,0,0,1-2.35-.56,2.28,2.28,0,0,1-1.16-.77,2.57,2.57,0,0,1-.46-1.09,5.77,5.77,0,0,1-.1-.95c0-.24.1-1.16.31-2.78s.6-4,1.16-7,1.16-6.09,1.8-9.14,1.28-6,2-9,1.33-5.73,1.94-8.33,1.17-5,1.69-7.06.87-3.56,1.08-4.33.39-1.35.53-1.72a3.76,3.76,0,0,1,1.55-1.9,1.87,1.87,0,0,1,1.34-.21,12.75,12.75,0,0,1,2.14.67,14.39,14.39,0,0,1,2.39,1.16,2.51,2.51,0,0,1,1.23,1.44,4.42,4.42,0,0,1-.14,2.14q-3.94,16.32-6.15,27T220,551.22Zm15-71.64a7.45,7.45,0,0,1,.88,2.32,12.06,12.06,0,0,1,.28,3,14.71,14.71,0,0,1-.42,3.19,9.19,9.19,0,0,1-1.26,3,6.87,6.87,0,0,1-2.25,2.14,6.35,6.35,0,0,1-3.27.81,8.33,8.33,0,0,1-3.17-.53,6.08,6.08,0,0,1-2.07-1.37,6,6,0,0,1-1.23-1.83,10.57,10.57,0,0,1-.56-1.54,4.13,4.13,0,0,1-.14-1.06,4.73,4.73,0,0,1,.1-1,3.62,3.62,0,0,1,.35-.95,1.62,1.62,0,0,1,.74-.7,4.44,4.44,0,0,1,1.27-.39c.51-.09.81-.21.88-.35a.92.92,0,0,0,.1-.42,6.06,6.06,0,0,1,1.06-4.19,5.43,5.43,0,0,1,2.84-2,5.85,5.85,0,0,1,3.34.07A4.53,4.53,0,0,1,235,479.58Z"/><path d="M271,501.87a6.59,6.59,0,0,1,.14,2.28,6.8,6.8,0,0,1-1.41,2.81q-1.26,1.73-4.22,6.12t-6.4,10.69q-3.43,6.29-7,14.27a161.78,161.78,0,0,0-6.51,17.4,2.42,2.42,0,0,1-2.67,1.87,13.48,13.48,0,0,1-3.83-.92A10.87,10.87,0,0,1,236.4,555a3.87,3.87,0,0,1-1.2-1.44,8,8,0,0,1-.42-2.43q-.1-1.68-.21-4.92t-.11-7.31q0-4.08.18-8.82c.11-3.17.34-6.4.67-9.71s.78-6.62,1.37-10a62.59,62.59,0,0,1,1.76-7.77,15.84,15.84,0,0,1,1.37-3.48,1.72,1.72,0,0,1,1.3-.77,12,12,0,0,1,1.9,0c.72,0,1.45.13,2.18.25a22,22,0,0,1,2.49.56,10.71,10.71,0,0,1,2.5,1,3.33,3.33,0,0,1,1.47,1.54c.26.61,0,1.33-.63,2.15a14.36,14.36,0,0,1-1.65,1.76,9.51,9.51,0,0,0-1.06,1,4.9,4.9,0,0,0-.73,1.19,19.9,19.9,0,0,0-.88,3c-.38,1.52-.84,3.59-1.37,6.19s-1,5.44-1.41,8.51-.72,6.35-.95,9.84-.33,7.21-.28,11.14a2.91,2.91,0,0,0,.1.88c.07.21.15.26.25.14a3.07,3.07,0,0,0,.28-1.09c.33-2.15.93-5.05,1.79-8.68a109,109,0,0,1,3.73-12.06,113.18,113.18,0,0,1,6.22-13.78,74.39,74.39,0,0,1,6.72-10.86c1.94-2.46,3.05-3.81,3.3-4.05a2.53,2.53,0,0,1,.88-.52,2.27,2.27,0,0,1,1-.14,2,2,0,0,1,1.16.7,15.94,15.94,0,0,1,1.65,2.14A8.53,8.53,0,0,1,271,501.87Z"/><rect x="-114.01" y="542.59" width="1092.01" height="6" transform="translate(-115.56 975.1) rotate(-89.74)"/><g class="cls-4"><path class="cls-5" d="M462.5,754.59h1436a30.09,30.09,0,0,1,30,30v309H432.5v-309A30.09,30.09,0,0,1,462.5,754.59Z"/></g></svg>