<svg id="Layer_1" data-name="Layer 1" xmlns="http://www.w3.org/2000/svg" width="131.14" height="103.12" viewBox="0 0 131.14 103.12"><defs><style>.cls-1{fill:#ffd12a;}.cls-2{fill:#b92900;}.cls-3{fill:#a6493f;}.cls-4{fill:#bc9c20;}.cls-5{fill:none;}.cls-6{fill:#fff;}</style></defs><path class="cls-1" d="M131.14,55.53a8,8,0,0,1-2.52,5.72c-.37.4-.78.8-1.24,1.21l-.24.21a35.24,35.24,0,0,1-5,3.48q-2.22,1.32-5,2.68l-.4.2c-1.43.71-3,1.42-4.6,2.15l-.93.41c-1.29.57-2.64,1.14-4.06,1.73C97.81,77.21,85.75,81.62,71,87,37.7,99.21,25.24,100.68,19.32,99.56a11.46,11.46,0,0,1-4-1.53C4.69,91.69,4.47,77.1,4.15,55.53c-.13-8.46-.25-16.6.22-23.87V31.6a70.17,70.17,0,0,1,2-13.25s0-.07,0-.1C8.1,11.59,11.17,6.57,16.4,4a13.62,13.62,0,0,1,2.73-1h0c9-2.12,20.53,6.1,64.08,26C120.72,46.16,130.94,48.65,131.14,55.53Z"/><path class="cls-1" d="M127.14,60v23.5a2.5,2.5,0,0,1-5,0V60Z"/><path class="cls-1" d="M122.14,65v9.5a2.5,2.5,0,0,0-5,0V65Z"/><path class="cls-2" d="M122.13,55.42c.18,5.71-15.8,11.51-47.79,22.89C39.81,90.59,29.23,92,24.48,88.09c-2-1.7-2.46-5-3.29-11.71a81.94,81.94,0,0,1,0-21C24.69,31.94,26.31,20.06,31,18c7.71-3.43,14.89,2.19,53.11,18.16C113.85,48.61,122,50.42,122.13,55.42Z"/><path class="cls-3" d="M31.34,91.52c-3.58,0-6-.79-7.81-2.28-2.51-2.07-3-5.61-3.82-12.68a83.51,83.51,0,0,1,0-21.36L20,53.37C23.49,29.75,25.07,19,30.36,16.63c6.27-2.79,11.76-.37,30,7.65,6.35,2.8,14.26,6.28,24.34,10.5,6.82,2.85,12.58,5.17,17.21,7,16.61,6.7,21.62,8.72,21.77,13.55h0c.21,6.59-12.37,11.4-48.79,24.35C51.88,87.89,39,91.52,31.34,91.52Zm4.12-73a9.19,9.19,0,0,0-3.88.83C27.8,21.05,26,33.38,23,53.81l-.27,1.83a80.13,80.13,0,0,0,0,20.55c.76,6.08,1.17,9.43,2.76,10.74,4.48,3.71,17.14,1.08,48.4-10,27.25-9.7,46.94-16.7,46.8-21.43-.09-2.88-5.49-5.06-19.9-10.87-4.64-1.87-10.41-4.2-17.24-7.05-10.11-4.23-18-7.72-24.4-10.53C46,21.26,39.87,18.54,35.46,18.54Z"/><path class="cls-1" d="M18,100c-4.37.87-8.7-3.62-9.09-4A13,13,0,0,1,5.3,86.7,211,211,0,0,1,7,14.72,13.13,13.13,0,0,1,7.63,11,11.37,11.37,0,0,1,11,5.63c4.55-3.92,11.21-2.89,15.2-.46,1,.6,4.63,3,6.76,10.16,3.08,10.39-.26,19.92-1.57,24-3.08,9.55-6.16,23.68-6,43.87C26.76,92.2,22.58,99.1,18,100Z"/><path class="cls-4" d="M16.82,103.12C12,103.12,8,99.32,6.73,98A15.91,15.91,0,0,1,2.3,86.9,214.12,214.12,0,0,1,4,14.38a16.72,16.72,0,0,1,.75-4.26A14.23,14.23,0,0,1,9.08,3.36C14.76-1.53,22.76-.46,27.8,2.61c2.07,1.26,5.88,4.48,8.08,11.87,3.23,10.89,0,21-1.44,25.28l-.15.46c-4,12.37-6,26.74-5.9,42.72,1.56,10.86-3.86,18.83-9.82,20A9.6,9.6,0,0,1,16.82,103.12ZM18.46,6A8.21,8.21,0,0,0,13,7.9a8.44,8.44,0,0,0-2.51,4A10.34,10.34,0,0,0,10,14.77L10,15.3a207.5,207.5,0,0,0-1.68,71l0,.25v.26a9.94,9.94,0,0,0,2.77,7.13c1.23,1.28,4.11,3.6,6.34,3.16h0c2.86-.57,6.15-6,5-13.44l0-.43c-.1-16.7,2-31.78,6.19-44.81l.15-.48c1.33-4.09,4.1-12.61,1.39-21.71-1.68-5.67-4.36-7.8-5.44-8.46A12.64,12.64,0,0,0,18.46,6Z"/><path class="cls-5" d="M117.14,68.83V69h-.4Z"/><path class="cls-1" d="M117.14,68.83V69h-.4Z"/><path class="cls-1" d="M117.14,69v18.5a2.5,2.5,0,0,1-5,0V69Z"/><path class="cls-1" d="M112.14,71.18v2.35a2.46,2.46,0,0,0-.93-1.94Z"/><path class="cls-1" d="M127.38,62.46a2.34,2.34,0,0,0-.23.86,1.48,1.48,0,0,0,0,.21v-.86Z"/><path class="cls-6" d="M23.64,45.1l-1-.13a.5.5,0,0,1-.44-.56,47.61,47.61,0,0,1,2-8.69c.3-.91.56-1.61.81-2.27a29.66,29.66,0,0,0,1.17-3.66,27.15,27.15,0,0,0,1-6.76,24.23,24.23,0,0,0-.83-6.25.48.48,0,0,1,.33-.6l1-.28a.51.51,0,0,1,.63.35A25.71,25.71,0,0,1,29.14,23a28.57,28.57,0,0,1-1,7.23,33.74,33.74,0,0,1-1.24,3.89c-.24.63-.49,1.31-.78,2.19a46.26,46.26,0,0,0-1.9,8.32A.49.49,0,0,1,23.64,45.1Z"/><path class="cls-6" d="M25.69,13.3a.49.49,0,0,1-.66-.15,7.36,7.36,0,0,0-2.39-2.25A7.8,7.8,0,0,0,20,10,10.21,10.21,0,0,0,16.79,10a.5.5,0,0,1-.56-.41l-.18-1A.51.51,0,0,1,16.48,8a12.3,12.3,0,0,1,3.83.08,9.84,9.84,0,0,1,3.32,1.11,9.19,9.19,0,0,1,3.09,2.93.49.49,0,0,1-.17.7Z"/><path class="cls-6" d="M53,31.7a6.53,6.53,0,0,1,3.45.83,5.57,5.57,0,0,1,2.1,2.21,7.71,7.71,0,0,1,.83,3.19A12.73,12.73,0,0,1,59,41.66a16.73,16.73,0,0,1-1.45,3.84A15.84,15.84,0,0,1,55,49a15.47,15.47,0,0,1-3.46,2.78,13.21,13.21,0,0,1-4.33,1.63q-.75,2.48-1.48,5.2c-.5,1.81-.9,3.32-1.21,4.55a17.54,17.54,0,0,0-.51,2.3,4.8,4.8,0,0,0,0,.84c0,.25,0,.52,0,.79A5.79,5.79,0,0,1,44,68.18a1,1,0,0,1-.37.65,1.64,1.64,0,0,1-.62.26,2,2,0,0,1-.69,0c-.22,0-.47-.12-.76-.21a5.32,5.32,0,0,1-.93-.43,1,1,0,0,1-.55-.75,3.27,3.27,0,0,1,.11-1c.09-.38.25-1,.47-1.86s.48-1.85.79-3l1-3.76,1.24-4.41-.51-.23a1.48,1.48,0,0,1-.32-.21.58.58,0,0,1-.18-.25.59.59,0,0,1,0-.35,1.08,1.08,0,0,1,.2-.38,1,1,0,0,1,.5-.29c.23-.07.4-.11.5-.13l.33,0,2-6.67c.69-2.32,1.24-4.13,1.64-5.41s.66-2,.74-2.23a1.66,1.66,0,0,1,.36-.53,1.22,1.22,0,0,1,.55-.29,1.15,1.15,0,0,1,.75.14.84.84,0,0,1,.51.56,5.65,5.65,0,0,1-.51,2l.46.37a1.14,1.14,0,0,1,.23.32,1.35,1.35,0,0,1,.12.54,2.75,2.75,0,0,1-.13.78c-.1.29-.4,1.25-.91,2.88s-.93,3-1.27,4.17-.52,1.76-.53,1.81a.33.33,0,0,0,0,.14.14.14,0,0,0,.08.09.27.27,0,0,0,.19,0,13.25,13.25,0,0,0,3.7-2.87,15.78,15.78,0,0,0,2.45-3.63,14.34,14.34,0,0,0,1.25-3.8,10.52,10.52,0,0,0,.1-3.42,5.17,5.17,0,0,0-1-2.47,2.41,2.41,0,0,0-2-1,6.66,6.66,0,0,0-2.24.37,9.31,9.31,0,0,0-2,1,10.55,10.55,0,0,0-1.64,1.34,15.36,15.36,0,0,0-1.34,1.52c-.39.51-.74,1-1,1.46l-.65,1.07a1.22,1.22,0,0,1-.39.49.9.9,0,0,1-.41.13,1.5,1.5,0,0,1-.42,0,2.13,2.13,0,0,1-.43-.17,2.46,2.46,0,0,1-.64-.51c-.27-.26-.5-.5-.69-.71a.85.85,0,0,1-.27-.59A1.63,1.63,0,0,1,41,38a4.43,4.43,0,0,1,.62-1,11.84,11.84,0,0,1,1.72-1.74,14.92,14.92,0,0,1,5.93-3.11A13.93,13.93,0,0,1,53,31.7Z"/><path class="cls-6" d="M66,34.91a1,1,0,0,1,.16.63q-.06.26-.3.93t-.9,2.61c-.45,1.3-.93,2.79-1.47,4.47S62.37,47,61.8,49s-1.09,3.91-1.58,5.89-.94,3.94-1.35,5.86A31.73,31.73,0,0,0,58.15,65c-.06.93-.1,1.54-.12,1.81a5.27,5.27,0,0,1-.14.75,1.88,1.88,0,0,1-.3.6,1,1,0,0,1-.55.36,3,3,0,0,1-.95.06c-.4,0-.71,0-.92-.09a5.8,5.8,0,0,1-.57-.11.88.88,0,0,1-.43-.25,1.07,1.07,0,0,1-.24-.37,1.24,1.24,0,0,1-.09-.38c0-.13,0-.31,0-.56s.09-.75.21-1.52.3-1.74.55-2.92.57-2.6,1-4.26,1-3.61,1.61-5.84,1.43-4.78,2.33-7.63,2-6,3.14-9.56c.1-.28.21-.42.32-.4a.58.58,0,0,1,.28.1l.22.16.23.2c.2-.6.33-1,.38-1.1a.46.46,0,0,1,.28-.28.69.69,0,0,1,.54.11,3.27,3.27,0,0,1,.58.44A2.61,2.61,0,0,1,66,34.91Z"/><path class="cls-6" d="M76.69,48.41a2.89,2.89,0,0,1,.39.49.61.61,0,0,1,0,.65c-.89,1.84-1.61,3.53-2.18,5.07s-1,3-1.36,4.22a31,31,0,0,0-.7,3.41c-.13,1-.22,1.86-.25,2.59a1.57,1.57,0,0,0,.1.66.66.66,0,0,0,.25.29.82.82,0,0,0,.32.11.54.54,0,0,1,.3.1.43.43,0,0,1,.15.3,2.19,2.19,0,0,1-.06.62.93.93,0,0,1-.44.6,4.28,4.28,0,0,1-.75.34,5.93,5.93,0,0,1-1,.24,5.09,5.09,0,0,1-1.14.08c-.35,0-.56-.12-.65-.32a2.37,2.37,0,0,1-.15-.46c0-.11,0-.22,0-.34s0-.26,0-.42,0-.2-.15-.11l-.53.48a6.17,6.17,0,0,1-1.26.8,4.38,4.38,0,0,1-2,.47,3.26,3.26,0,0,1-1.58-.36A3.6,3.6,0,0,1,62.78,67,5.16,5.16,0,0,1,62,65.74a9.32,9.32,0,0,1-.42-1.37c-.09-.46-.15-.88-.19-1.27s0-.77,0-1.15,0-1,.14-2a23.13,23.13,0,0,1,.54-3.15,25.26,25.26,0,0,1,1.08-3.49,13,13,0,0,1,1.79-3.23,9.28,9.28,0,0,1,2.66-2.37,7.09,7.09,0,0,1,3.72-.94,2.43,2.43,0,0,1,1.54.44,2.86,2.86,0,0,1,.83,1,3.48,3.48,0,0,1,.56-.81c.14-.12.48-.09,1,.1A4,4,0,0,1,76.69,48.41ZM66,66.73c.5,0,1-.37,1.41-1.09a15.24,15.24,0,0,0,1.27-2.75c.41-1.12.81-2.34,1.19-3.68s.71-2.44,1-3.33.49-1.57.65-2.05.32-.95.47-1.39h-.3l-.38,0a.51.51,0,0,1-.35-.14.52.52,0,0,1-.14-.25.83.83,0,0,1,0-.27,1.79,1.79,0,0,1,.1-.38q.09-.25.24-.81a7.22,7.22,0,0,0,.23-1.06,2.4,2.4,0,0,0,0-.85A.39.39,0,0,0,71,48.3a1.7,1.7,0,0,0-.85.52,9.39,9.39,0,0,0-1.26,1.45,20.65,20.65,0,0,0-1.41,2.27,21.1,21.1,0,0,0-1.3,3,24.17,24.17,0,0,0-1,3.62,21.85,21.85,0,0,0-.37,4.12,6.65,6.65,0,0,0,.38,2.57C65.46,66.43,65.73,66.73,66,66.73Z"/><path class="cls-6" d="M91.79,47.51a1.39,1.39,0,0,1,.42.68,1.62,1.62,0,0,1-.33,1.16c-.3.51-.79,1.39-1.49,2.63S88.88,54.71,88,56.46s-1.92,3.7-3,5.88-2,4.21-2.88,6.09-1.53,3.47-2,4.75-1,2.46-1.37,3.56-.75,2.06-1,2.88S77.15,81,77,81.41s-.35.56-.62.58a1.88,1.88,0,0,1-.85-.12,3.34,3.34,0,0,1-.8-.41.82.82,0,0,1-.25-.86.93.93,0,0,0-.3-.94,1,1,0,0,1-.42-.78A2,2,0,0,1,74,78c.16-.32.38-.79.67-1.39S75.39,75,76,73.69s1.3-2.77,2.07-4.39,1.58-3.32,2.45-5.13c.06-.15,0-.23-.06-.23a.53.53,0,0,0-.2.06,3.6,3.6,0,0,1-1.12.17,2.13,2.13,0,0,1-1.57-.8,4.9,4.9,0,0,1-1-2.69,19.25,19.25,0,0,1,.18-5A31.25,31.25,0,0,1,78,50.18c.52-1.57.81-2.43.87-2.56a1.46,1.46,0,0,1,.65-.72.78.78,0,0,1,.47-.09l.56.12c.22,0,.47.12.76.21s.54.2.76.3a1.91,1.91,0,0,1,.56.38,2.53,2.53,0,0,1,.39.52,1.2,1.2,0,0,1,0,.81,1.77,1.77,0,0,1-.34.78,3.74,3.74,0,0,1-.46.44,4.32,4.32,0,0,0-.45.42,3.1,3.1,0,0,0-.44,1.11q-.24.87-.54,2.13c-.2.84-.4,1.68-.59,2.5s-.34,1.62-.48,2.38-.23,1.42-.29,2a6.41,6.41,0,0,0,0,1.36c0,.34.16.51.34.51s.62-.22,1-.68A14.45,14.45,0,0,0,82,60.42c.43-.66.86-1.37,1.29-2.14s.91-1.69,1.46-2.77,1.22-2.37,2-3.89,1.39-2.69,1.85-3.54a7,7,0,0,1,.86-1.4,1.13,1.13,0,0,1,.39-.15,1.11,1.11,0,0,1,.56.1,6.15,6.15,0,0,1,.77.42A4.9,4.9,0,0,1,91.79,47.51Z"/></svg>