<svg id="Layer_1" data-name="Layer 1" xmlns="http://www.w3.org/2000/svg" width="805" height="770" viewBox="0 0 805 770"><defs><style>.cls-1{fill:#ffd12a;}.cls-2{fill:#bc9c20;}.cls-3{fill:#fff;}</style></defs><path class="cls-1" d="M617,758.3,412.74,649.87a25,25,0,0,0-23.27-.09L184.36,756.57c-18.38,9.57-39.75-6.09-36.17-26.5l40-227.76a25,25,0,0,0-7.1-22.16L16.15,318.07c-14.78-14.52-6.5-39.69,14-42.58l229-32.34A25,25,0,0,0,278,229.55l103.17-207c9.24-18.54,35.74-18.44,44.84.18L527.55,230.55a25,25,0,0,0,18.77,13.75L775,278.47c20.49,3.06,28.58,28.29,13.68,42.7L622.47,481.92a25,25,0,0,0-7.28,22.1l38.18,228.07C656.79,752.53,635.3,768,617,758.3Z"/><path class="cls-2" d="M628.75,769.75A33.42,33.42,0,0,1,613,765.81L408.76,657.38a16.49,16.49,0,0,0-15.36-.06L188.28,764.11a33.49,33.49,0,0,1-48.46-35.51l40-227.76a16.52,16.52,0,0,0-4.68-14.63L10.19,324.14A33.5,33.5,0,0,1,29,267.07l229-32.34a16.49,16.49,0,0,0,12.46-9l103.17-207a33.28,33.28,0,0,1,30-18.55h.14a33.29,33.29,0,0,1,30,18.79L535.19,226.82a16.47,16.47,0,0,0,12.38,9.07l228.71,34.17a33.51,33.51,0,0,1,18.34,57.22L628.38,488a16.49,16.49,0,0,0-4.8,14.58l38.18,228.08a33.56,33.56,0,0,1-33,39.06ZM401,638.45a33.6,33.6,0,0,1,15.71,3.91L621,750.79a16.5,16.5,0,0,0,24-17.29L606.81,505.42a33.5,33.5,0,0,1,9.75-29.61L782.8,315.06a16.5,16.5,0,0,0-9-28.19L545.06,252.71a33.49,33.49,0,0,1-25.15-18.43L418.4,26.5a16.5,16.5,0,0,0-29.59-.12l-103.18,207a33.51,33.51,0,0,1-25.29,18.23l-229,32.33A16.51,16.51,0,0,0,22.1,312l165,162.08a33.51,33.51,0,0,1,9.52,29.69l-40,227.76A16.5,16.5,0,0,0,180.43,749L385.55,642.24A33.42,33.42,0,0,1,401,638.45Z"/><path class="cls-3" d="M445.16,183.05l36.57,62.13c6,10.23,11.95,20.51,18.06,30.68,3.11,5.17,6.81,10,12.09,13.08,4.83,2.85,10.26,4,15.78,4.52a122.88,122.88,0,0,0,15.59,0,114.2,114.2,0,0,1,18.76.87l-2-.27a108.07,108.07,0,0,1,21.5,5.21c3.71,1.31,8.37-1.48,9.23-5.24a7.68,7.68,0,0,0-5.24-9.22,116.1,116.1,0,0,0-25.37-5.72c-7.67-.89-15.26-.62-22.95-.42a71.28,71.28,0,0,1-11.41-.43l2,.27a31,31,0,0,1-7.5-2l1.79.76a22.68,22.68,0,0,1-4-2.21c-.06,0-.39-.34-.45-.33s1.3,1.06.78.6c-.3-.27-.62-.52-.91-.8a21,21,0,0,1-1.9-2c-.14-.17-.27-.34-.41-.5-.53-.61.59.74.52.68a5.63,5.63,0,0,1-.75-1c-.53-.76-1-1.54-1.52-2.32-1-1.62-1.95-3.27-2.91-4.91L497.84,243l-25.43-43.21-14.29-24.29c-2-3.38-6.85-4.89-10.27-2.69a7.64,7.64,0,0,0-2.69,10.26Z"/><path class="cls-3" d="M618.08,303.4c3.93,0,7.69-3.45,7.5-7.5a7.62,7.62,0,0,0-7.5-7.5c-3.92,0-7.68,3.45-7.5,7.5a7.64,7.64,0,0,0,7.5,7.5Z"/></svg>