<svg id="Layer_1" data-name="Layer 1" xmlns="http://www.w3.org/2000/svg" width="163" height="205" viewBox="0 0 163 205"><defs><style>.cls-1{fill:#c1ac93;}.cls-2{fill:#534741;}.cls-3{fill:#fff;}</style></defs><path class="cls-1" d="M42.75,126.12c-17.81,34.27-23.95,47.16-18,59,6.62,13.19,24.43,17.52,28.36,18.36s19,4.05,29.64-3.36c10.42-7.26,12.21-21.66,11-63-1.55-52.58-2.32-78.87-9.36-80.35C81.31,56.13,77.74,58.81,42.75,126.12Z"/><path class="cls-1" d="M162.75,75.12c.37,6.19,1.86,30.64-16,45-8.9,7.16-23.93,12.89-37,8-20.57-7.67-17.65-34.64-34-39-18.55-4.94-32.29,27.09-51,23-16-3.48-27.72-31.56-24-54C6.6,22.78,52-5.73,93.75,1.12,131.83,7.38,160.74,42.09,162.75,75.12Z"/><path class="cls-2" d="M59.6,94.35A64.41,64.41,0,0,0,65.23,83C66.65,79.19,68,75,67.94,71c-.16-6.62-5-11.06-11-12.84a25.75,25.75,0,0,0-5.64-1c-1.93-.11-1.92,2.89,0,3A18.71,18.71,0,0,1,61,63.37c5.88,4.38,3.76,11.9,1.69,17.75A60.13,60.13,0,0,1,57,92.83c-1,1.65,1.57,3.15,2.59,1.52Z"/><path class="cls-2" d="M93,108.43a60.19,60.19,0,0,1-.59-11.69A34.67,34.67,0,0,1,93.91,87c1.86-5.36,6.82-8.49,12.34-8.91,1.91-.14,1.93-3.14,0-3-6.48.5-12.31,3.93-14.84,10.1a33.59,33.59,0,0,0-2,10.56,64.41,64.41,0,0,0,.64,13.45c.29,1.9,3.18,1.09,2.9-.8Z"/><ellipse class="cls-2" cx="53.75" cy="66.87" rx="10.5" ry="10.25"/><ellipse class="cls-2" cx="106.2" cy="84.71" rx="10.5" ry="10.25"/><path class="cls-3" d="M145,116.42c5.62-5,9-11.94,11-19,2.07-7.29,3.45-15.26,2.76-22.85a31.58,31.58,0,0,0-3.82-12.89c-1.91-3.35-7.1-.34-5.18,3,3.44,6,3.57,13.22,2.74,20-.79,6.41-2.3,13.12-5.22,18.91a28.37,28.37,0,0,1-6.51,8.65,3,3,0,1,0,4.24,4.24Z"/><path class="cls-3" d="M148.48,57.49c3.87,0,3.87-6,0-6s-3.86,6,0,6Z"/></svg>