<svg id="Layer_1" data-name="Layer 1" xmlns="http://www.w3.org/2000/svg" width="1214" height="1214" viewBox="0 0 1214 1214"><defs><style>.cls-1{fill:#b92900;}.cls-2{fill:#fff;}</style></defs><circle class="cls-1" cx="607" cy="607" r="598"/><path d="M607,1214A607.16,607.16,0,0,1,370.73,47.7,607.16,607.16,0,0,1,843.27,1166.3,603.27,603.27,0,0,1,607,1214ZM607,18A589.16,589.16,0,0,0,377.74,1149.72,589.16,589.16,0,0,0,836.26,64.28,585.3,585.3,0,0,0,607,18Z"/><path class="cls-2" d="M607,607q-2-296-4-592c326.12-.51,593.82,267.92,593,592-.81,321.45-265.54,587.32-589,589Z"/><rect x="597" y="1095" width="20" height="110"/><circle cx="607" cy="607" r="41"/><rect x="9" y="597" width="110" height="20"/><rect x="1097" y="597" width="110" height="20"/><rect x="597" y="9" width="20" height="110"/><rect x="935.85" y="213" width="110.31" height="20" transform="translate(132.57 766.06) rotate(-45)"/><rect x="167.67" y="980.79" width="110.46" height="20" transform="translate(-637.41 451.15) rotate(-45.22)"/><rect x="980.8" y="935.85" width="20" height="110.47" transform="translate(-410.6 996.08) rotate(-45.21)"/><rect x="212.81" y="168.01" width="20" height="110.19" transform="translate(-92.49 221.73) rotate(-44.79)"/></svg>