<svg id="Layer_1" data-name="Layer 1" xmlns="http://www.w3.org/2000/svg" width="11278" height="1214" viewBox="0 0 11278 1214"><defs><style>.cls-1{fill:#b92900;}.cls-2{fill:#fff;}</style></defs><circle class="cls-1" cx="1865" cy="607" r="598"/><path d="M1865,1214A607.16,607.16,0,0,1,1628.73,47.7a607.16,607.16,0,0,1,472.54,1118.6A603.27,603.27,0,0,1,1865,1214Zm0-1196a589.16,589.16,0,0,0-229.26,1131.72A589.16,589.16,0,0,0,2094.26,64.28,585.3,585.3,0,0,0,1865,18Z"/><path class="cls-2" d="M1865,607q-2-296-4-592a595.59,595.59,0,0,1,424,175Z"/><rect x="1855" y="1095" width="20" height="110"/><circle cx="1865" cy="607" r="41"/><rect x="1267" y="597" width="110" height="20"/><rect x="2355" y="597" width="110" height="20"/><rect x="1855" y="9" width="20" height="110"/><rect x="2193.85" y="213" width="110.31" height="20" transform="translate(501.03 1655.6) rotate(-45)"/><rect x="1425.67" y="980.79" width="110.46" height="20" transform="translate(-265.49 1344.14) rotate(-45.22)"/><rect x="2238.8" y="935.85" width="20" height="110.47" transform="translate(-38.84 1888.91) rotate(-45.21)"/><rect x="1470.81" y="168.01" width="20" height="110.19" transform="translate(272.67 1107.96) rotate(-44.79)"/><circle class="cls-1" cx="3123.5" cy="607.16" r="598"/><path d="M3123.5,1214.16A607.15,607.15,0,0,1,2887.22,47.87a607.15,607.15,0,0,1,472.55,1118.59A603.27,603.27,0,0,1,3123.5,1214.16Zm0-1196a589.16,589.16,0,0,0-229.27,1131.72A589.16,589.16,0,0,0,3352.76,64.44,585.34,585.34,0,0,0,3123.5,18.16Z"/><path class="cls-2" d="M3123.5,607.16q-2-296-4-592c40,.21,250.55,5.35,420,176,167.07,168.27,172.71,375.07,173,416Z"/><rect x="3113.5" y="1095.16" width="20" height="110"/><circle cx="3123.5" cy="607.16" r="41"/><rect x="2525.5" y="597.16" width="110" height="20"/><rect x="3613.5" y="597.16" width="110" height="20"/><rect x="3113.5" y="9.16" width="20" height="110"/><rect x="3452.34" y="213.16" width="110.31" height="20" transform="translate(869.52 2545.54) rotate(-45)"/><rect x="2684.17" y="980.96" width="110.46" height="20" transform="translate(106.46 2237.53) rotate(-45.22)"/><rect x="3497.29" y="936.02" width="20" height="110.47" transform="translate(332.96 2782.14) rotate(-45.21)"/><rect x="2729.31" y="168.17" width="20" height="110.19" transform="translate(637.86 1994.58) rotate(-44.79)"/><circle class="cls-1" cx="4382" cy="607" r="598"/><path d="M4382,1214A607.16,607.16,0,0,1,4145.73,47.7a607.16,607.16,0,0,1,472.54,1118.6A603.27,603.27,0,0,1,4382,1214Zm0-1196a589.16,589.16,0,0,0-229.26,1131.72A589.16,589.16,0,0,0,4611.26,64.28,585.3,585.3,0,0,0,4382,18Z"/><path class="cls-2" d="M4382,607q-2-296-4-592c238.27-.23,454.41,143.26,546.49,362.75,92.46,220.39,42.57,476.23-126,646Z"/><rect x="4372" y="1095" width="20" height="110"/><circle cx="4382" cy="607" r="41"/><rect x="3784" y="597" width="110" height="20"/><rect x="4872" y="597" width="110" height="20"/><rect x="4372" y="9" width="20" height="110"/><rect x="4710.85" y="213" width="110.31" height="20" transform="translate(1238.24 3435.39) rotate(-45)"/><rect x="3942.67" y="980.79" width="110.46" height="20" transform="translate(478.65 3130.83) rotate(-45.22)"/><rect x="4755.8" y="935.85" width="20" height="110.47" transform="translate(704.99 3675.28) rotate(-45.21)"/><rect x="3987.81" y="168.01" width="20" height="110.19" transform="translate(1003.29 2881.12) rotate(-44.79)"/><circle class="cls-1" cx="5640.87" cy="606.65" r="598"/><path d="M5640.87,1213.65A607.16,607.16,0,0,1,5404.6,47.35a607.15,607.15,0,0,1,472.54,1118.59A603.1,603.1,0,0,1,5640.87,1213.65Zm0-1196a589.16,589.16,0,0,0-229.26,1131.72A589.16,589.16,0,0,0,5870.13,63.93,585.3,585.3,0,0,0,5640.87,17.65Z"/><path class="cls-2" d="M5640.87,606.65q-2-296-4-592c326.12-.51,593.82,267.92,593,592-.81,321.45-265.54,587.32-589,589Z"/><rect x="5630.87" y="1094.65" width="20" height="110"/><circle cx="5640.87" cy="606.65" r="41"/><rect x="5042.87" y="596.65" width="110" height="20"/><rect x="6130.87" y="596.65" width="110" height="20"/><rect x="5630.87" y="8.65" width="20" height="110"/><rect x="5969.72" y="212.65" width="110.31" height="20" transform="translate(1607.21 4325.44) rotate(-45)"/><rect x="5201.54" y="980.44" width="110.46" height="20" transform="translate(851.08 4024.33) rotate(-45.22)"/><rect x="6014.67" y="935.5" width="20" height="110.47" transform="translate(1077.26 4568.63) rotate(-45.21)"/><rect x="5246.68" y="167.66" width="20" height="110.19" transform="translate(1368.95 3767.87) rotate(-44.79)"/><circle class="cls-1" cx="6900.23" cy="616.36" r="598"/><path d="M6900.23,1223.36A607.15,607.15,0,0,1,6664,57.07,607.15,607.15,0,0,1,7136.5,1175.66,603.27,603.27,0,0,1,6900.23,1223.36Zm0-1196A589.16,589.16,0,0,0,6671,1159.08,589.16,589.16,0,0,0,7129.49,73.64,585.3,585.3,0,0,0,6900.23,27.36Z"/><path class="cls-2" d="M6900.23,616.36q-2-296-4-592c326.12-.51,593.82,267.92,593,592-.81,321.46-265.54,587.33-589,589Z"/><path class="cls-2" d="M6900.62,615.34q.14,296.14.25,592.31a590.93,590.93,0,0,1-417-175Z"/><rect x="6890.23" y="1104.36" width="20" height="110"/><circle cx="6900.23" cy="616.36" r="41"/><rect x="6302.23" y="606.36" width="110" height="20"/><rect x="7390.23" y="606.36" width="110" height="20"/><rect x="6890.23" y="18.36" width="20" height="110"/><rect x="7229.07" y="222.36" width="110.31" height="20" transform="translate(1969.2 5218.78) rotate(-45)"/><rect x="6460.9" y="990.16" width="110.46" height="20" transform="translate(1216.5 4921.15) rotate(-45.22)"/><rect x="7274.03" y="945.22" width="20" height="110.47" transform="translate(1442.53 5465.29) rotate(-45.21)"/><rect x="6506.04" y="177.37" width="20" height="110.19" transform="translate(1727.66 4657.87) rotate(-44.79)"/><circle class="cls-1" cx="8159.18" cy="616.89" r="598"/><path d="M8159.18,1223.89A607.16,607.16,0,0,1,7922.91,57.59a607.15,607.15,0,0,1,472.54,1118.59A603.1,603.1,0,0,1,8159.18,1223.89Zm0-1196A589.15,589.15,0,0,0,7929.92,1159.6,589.15,589.15,0,0,0,8388.44,74.17,585.3,585.3,0,0,0,8159.18,27.89Z"/><path class="cls-2" d="M8159.18,616.89q-2-296-4-592c326.12-.51,593.82,267.92,593,592-.81,321.45-265.54,587.32-589,589Z"/><path class="cls-2" d="M8159.58,615.86l.24,592.31c-39.92-.22-248.48-5.44-416.95-174.52-168.21-168.82-172.88-377-173-417Z"/><rect x="8149.18" y="1104.89" width="20" height="110"/><circle cx="8159.18" cy="616.89" r="41"/><rect x="7561.18" y="606.89" width="110" height="20"/><rect x="8649.18" y="606.89" width="110" height="20"/><rect x="8149.18" y="18.89" width="20" height="110"/><rect x="8488.03" y="222.89" width="110.31" height="20" transform="translate(2337.56 6109.15) rotate(-45)"/><rect x="7719.85" y="990.68" width="110.46" height="20" transform="translate(1588.33 5814.97) rotate(-45.22)"/><rect x="8532.98" y="945.74" width="20" height="110.47" transform="translate(1814.2 6358.96) rotate(-45.21)"/><rect x="7764.99" y="177.89" width="20" height="110.19" transform="translate(2092.73 5544.93) rotate(-44.79)"/><circle class="cls-1" cx="9418.52" cy="617.3" r="598"/><path d="M9418.52,1224.3A607.16,607.16,0,0,1,9182.25,58,607.15,607.15,0,0,1,9654.8,1176.59,603.14,603.14,0,0,1,9418.52,1224.3Zm0-1196A589.16,589.16,0,0,0,9189.26,1160,589.16,589.16,0,0,0,9647.79,74.58,585.35,585.35,0,0,0,9418.52,28.3Z"/><path class="cls-2" d="M9418.52,617.3q-2-296-4-592c326.12-.51,593.82,267.92,593,592-.81,321.45-265.53,587.32-589,589Z"/><path class="cls-2" d="M9418.92,616.27q.12,296.16.25,592.31c-237.1-.93-451.64-143.89-543.3-361.93-92.56-220.17-42.68-476.09,126-646Z"/><rect x="9408.52" y="1105.3" width="20" height="110"/><circle cx="9418.52" cy="617.3" r="41"/><rect x="8820.52" y="607.3" width="110" height="20"/><rect x="9908.52" y="607.3" width="110" height="20"/><rect x="9408.52" y="19.3" width="20" height="110"/><rect x="9747.37" y="223.3" width="110.31" height="20" transform="translate(2706.13 6999.76) rotate(-45)"/><rect x="8979.2" y="991.09" width="110.46" height="20" transform="translate(1960.36 6709.04) rotate(-45.22)"/><rect x="9792.32" y="946.15" width="20" height="110.47" transform="translate(2186.07 7252.86) rotate(-45.21)"/><rect x="9024.34" y="178.31" width="20" height="110.19" transform="translate(2458 6432.23) rotate(-44.79)"/><circle class="cls-1" cx="10677.56" cy="615.27" r="598"/><path d="M10677.56,1222.27A607.15,607.15,0,0,1,10441.29,56a607.15,607.15,0,0,1,472.55,1118.59A603.31,603.31,0,0,1,10677.56,1222.27Zm0-1196A589.16,589.16,0,0,0,10448.3,1158,589.16,589.16,0,0,0,10906.83,72.55,585.35,585.35,0,0,0,10677.56,26.27Z"/><path class="cls-2" d="M10677.56,615.27q-2-296-4-592c326.12-.51,593.82,267.92,593,592-.81,321.46-265.53,587.32-589,589Z"/><path class="cls-2" d="M10678,614.24l.24,592.32c-323.75-1.56-589-268.07-589.33-590.91-.31-321.63,262.48-588.08,585-592Q10675.91,318.94,10678,614.24Z"/><rect x="10667.56" y="1103.27" width="20" height="110"/><circle cx="10677.56" cy="615.27" r="41"/><rect x="10079.56" y="605.27" width="110" height="20"/><rect x="11167.56" y="605.27" width="110" height="20"/><rect x="10667.56" y="17.27" width="20" height="110"/><rect x="11006.41" y="221.27" width="110.31" height="20" transform="translate(3076.32 7889.44) rotate(-45)"/><rect x="10238.23" y="989.07" width="110.46" height="20" transform="translate(2334.03 7602.16) rotate(-45.22)"/><rect x="11051.36" y="944.13" width="20" height="110.47" transform="translate(2559.58 8145.83) rotate(-45.21)"/><rect x="10283.37" y="176.28" width="20" height="110.19" transform="translate(2824.89 7318.6) rotate(-44.79)"/><circle class="cls-1" cx="607" cy="607" r="598"/><path d="M607,1214A607.16,607.16,0,0,1,370.73,47.7,607.16,607.16,0,0,1,843.27,1166.3,603.27,603.27,0,0,1,607,1214ZM607,18A589.16,589.16,0,0,0,377.74,1149.72,589.16,589.16,0,0,0,836.26,64.28,585.3,585.3,0,0,0,607,18Z"/><rect x="597" y="1095" width="20" height="110"/><circle cx="607" cy="607" r="41"/><rect x="9" y="597" width="110" height="20"/><rect x="1097" y="597" width="110" height="20"/><rect x="597" y="9" width="20" height="110"/><rect x="935.85" y="213" width="110.31" height="20" transform="translate(132.57 766.06) rotate(-45)"/><rect x="167.67" y="980.79" width="110.46" height="20" transform="translate(-637.41 451.15) rotate(-45.22)"/><rect x="980.8" y="935.85" width="20" height="110.47" transform="translate(-410.6 996.08) rotate(-45.21)"/><rect x="212.81" y="168.01" width="20" height="110.19" transform="translate(-92.49 221.73) rotate(-44.79)"/></svg>