<svg id="Layer_1" data-name="Layer 1" xmlns="http://www.w3.org/2000/svg" width="354" height="333.98" viewBox="0 0 354 333.98"><defs><style>.cls-1{fill:#b92900;}.cls-2{fill:#a6493f;}.cls-3{fill:#008827;}.cls-4{fill:#005527;}.cls-5{fill:#fff;}</style></defs><ellipse class="cls-1" cx="177" cy="191.48" rx="168" ry="133.51"/><path class="cls-2" d="M177,334c-46.9,0-91.08-14.58-124.39-41.06C18.68,266,0,230,0,191.48S18.68,117,52.61,90C85.92,63.56,130.1,49,177,49S268.08,63.56,301.39,90C335.32,117,354,153,354,191.48S335.32,266,301.39,292.93C268.08,319.41,223.9,334,177,334Zm0-267C89.33,67,18,122.83,18,191.48S89.33,316,177,316s159-55.85,159-124.51S264.67,67,177,67Z"/><path class="cls-3" d="M230.43,102.28l-44.65,2.1a4.92,4.92,0,0,0-3.24,1.4l-32.15,31.06a5,5,0,0,1-8.4-2.74l-5.2-29.77a5,5,0,0,0-3.92-4l-34.22-7A5,5,0,0,1,97.21,84l37.68-21.15a5,5,0,0,0,2.46-3.39l7.1-36A5,5,0,0,1,152,20.23l31,19.49a5,5,0,0,0,4.15.54l41.23-12.92a5,5,0,0,1,5.75,7.4L215.85,64.47a5,5,0,0,0,.25,5.62l18.1,24.2A5,5,0,0,1,230.43,102.28Z"/><path class="cls-4" d="M177.24,73.18A102.73,102.73,0,0,1,181,57.31c.82-2.57,1.73-5.11,2.75-7.61L184,49c.52-1.26-.41.95,0,.14l.72-1.65c.61-1.34,1.24-2.66,1.89-4a99.4,99.4,0,0,1,7.86-13.06c.37-.52.75-1,1.13-1.54l.57-.76c.52-.69-.93,1.18-.12.16s1.57-1.95,2.39-2.91q2.4-2.79,5-5.37c1-.92,1.92-1.81,2.92-2.68.53-.46,1.08-.92,1.63-1.37l.55-.45.55-.43-.66.5c2.23-1.42,4.29-3.07,6.59-4.41a6.08,6.08,0,0,0,2.15-8.21A6.11,6.11,0,0,0,209,.79c-18.9,11-31.82,30.71-38.82,51A105.18,105.18,0,0,0,165.67,70a6.61,6.61,0,0,0,.6,4.62,6.09,6.09,0,0,0,3.59,2.76c2.86.65,6.87-.87,7.38-4.19Z"/><path class="cls-5" d="M283.13,119.68q2.16,2.32,4.19,4.77c.67.81,1.33,1.64,2,2.47.42.53-.42-.56,0,0l.45.59,1,1.35a111.23,111.23,0,0,1,6.83,10.65,117.46,117.46,0,0,1,5.6,11.37c-.39-.92.16.38.26.64.21.52.42,1,.62,1.56.39,1,.76,2,1.12,3,.71,2,1.38,4,2,6a123.73,123.73,0,0,1,3,12.33c.19,1,.37,2.08.54,3.13.08.49.16,1,.23,1.47,0,.29.26,1.9.12.84.27,2.1.49,4.2.66,6.32a119.15,119.15,0,0,1,.29,12.68q-.09,3.16-.36,6.33c-.09,1.05-.19,2.1-.31,3.15-.06.49-.11,1-.18,1.48,0,.15-.12.94,0,.32s-.05.39-.07.51a110.33,110.33,0,0,1-2.95,14q-1,3.4-2.13,6.75c-.39,1.12-.8,2.22-1.23,3.33-.23.58-.46,1.15-.7,1.73l-.28.69c.3-.73,0,0-.14.3-.93,2.15-.7,4.93,1.62,6.16,1.94,1,5.15.69,6.15-1.62a117.47,117.47,0,0,0,9.54-52.49,124.17,124.17,0,0,0-14-51.6,113.84,113.84,0,0,0-17.45-24.58,4.53,4.53,0,0,0-6.36,0,4.58,4.58,0,0,0,0,6.36Z"/><path class="cls-5" d="M299.58,260.38a4.5,4.5,0,1,0-4.5-4.5,4.55,4.55,0,0,0,4.5,4.5Z"/></svg>